<svg id="Group_36126" data-name="Group 36126" xmlns="http://www.w3.org/2000/svg" xmlns:xlink="http://www.w3.org/1999/xlink" width="136.725" height="118.29" viewBox="0 0 136.725 118.29">
  <defs>
    <clipPath id="clip-path">
      <rect id="Rectangle_7" data-name="Rectangle 7" width="136.725" height="118.29" fill="none"/>
    </clipPath>
    <clipPath id="clip-path-2">
      <rect id="Rectangle_6" data-name="Rectangle 6" width="136.725" height="118.29" fill="#fff"/>
    </clipPath>
    <clipPath id="clip-path-3">
      <rect id="Rectangle_5" data-name="Rectangle 5" width="28.881" height="28.879" fill="none"/>
    </clipPath>
  </defs>
  <g id="Mask_Group_6" data-name="Mask Group 6" clip-path="url(#clip-path)">
    <g id="Group_5" data-name="Group 5">
      <g id="Group_4" data-name="Group 4" clip-path="url(#clip-path-2)">
        <path id="Path_1" data-name="Path 1" d="M334.156,25.12c-2.465,7.423,2.613,15.316,5.362,22a191.635,191.635,0,0,1,8.312,23.787c4.156,15.713,5.229,33.172-1.526,48.345-1.228,2.759,1.812-1.806,2-2.089a67.036,67.036,0,0,0,5.464-9.28c6.639-14.913,6.751-31.287,3.1-47.012A167.639,167.639,0,0,0,348.817,36.4c-1.528-3.8-3.155-7.562-4.735-11.343-1.708-4.088-3.283-8.37-1.821-12.771.3-.9-.867.65-.711.5a23.416,23.416,0,0,0-2.625,3.908c-1.652,2.613-3.782,5.463-4.768,8.432" transform="translate(-222.547 -8.01)" fill="#fff"/>
        <rect id="Rectangle_1" data-name="Rectangle 1" width="10.101" height="10.101" transform="translate(91.43 105.39) rotate(-55.693)" fill="#fdc180"/>
        <rect id="Rectangle_2" data-name="Rectangle 2" width="8.816" height="8.816" transform="translate(68.617 101.069) rotate(-55.692)" fill="#fdc180"/>
        <rect id="Rectangle_3" data-name="Rectangle 3" width="8.816" height="8.816" transform="translate(70.93 113.32) rotate(-55.692)" fill="#fdc180"/>
        <path id="Path_2" data-name="Path 2" d="M37.662,101.234c-1.19-5.82-5.113-10.672-11.185-11.745-6.034-1.067-12.641,1.464-17.626,4.735C3.96,97.434.4,102.166.051,108.151c-.256,4.4.506,9.016,1.17,13.345a44.2,44.2,0,0,0,2.5,9.943c4,9.911,12.869,20.566,24.37,21,13.644.51,21.208-13.269,24.869-24.411C57.206,115.1,60.623,98.168,75.444,93.4c1.272-.409-1.953-13.28-1.683-13.367-10.869,3.5-16.125,14.438-19.368,24.544-3.551,11.067-6.241,23.654-16.328,30.809-9.091,6.448-19.842,3.458-27.274-3.963a38.912,38.912,0,0,1-8.834-13.737c-.265-.7-.464-1.43-.718-2.137-1.07-2.981.043,8.67.693,4.6a17.017,17.017,0,0,1,1.121-4.257,18.019,18.019,0,0,1,4.94-6.408,29.044,29.044,0,0,1,16.313-6.818c6.513-.392,13.08,3.446,14.452,10.157.519,2.541.208-2.2.184-2.459a85.1,85.1,0,0,0-1.279-9.128" transform="translate(0 -53.405)" fill="#fff"/>
        <rect id="Rectangle_4" data-name="Rectangle 4" width="11.937" height="11.937" transform="translate(18.222 70.617) rotate(-55.693)" fill="#fdc180"/>
        <path id="Path_3" data-name="Path 3" d="M123.843,1.37a8.03,8.03,0,0,0-7.326,4.62c-1.951,3.736-1.092,8.056.295,11.826,3.13,8.507,7.71,16.532,11.44,24.785,7.213,15.957,12.9,33.675,8.471,51.223l12.718,1.748c-11.4-6.559-15.4-20.051-18.592-31.965-.186-.694-5.612-1.053-6.321-1.15-1.5-.206-3-.408-4.508-.537-.325-.028-1.682-.314-1.889-.061a64.168,64.168,0,0,0-13.159,27.183l12.718,1.748c-9.616-6.4-8.958-19.763-7.856-29.891.009-.082-11.855-2.588-12.719-1.748a51.415,51.415,0,0,0-15.53,35.586L94.3,96.486C85.67,83.406,82.69,67.914,80.52,52.649c-1.1-7.709-2.01-15.447-3.394-23.112-1.318-7.3-2.995-15.807-8.345-21.354C62.906,2.092,52.937,1.39,45.072.424a23.837,23.837,0,0,0-3.818-.4c-.868.045-.78-.156-.67.124.292.749,7.154,1.189,7.8,1.268-5.812-.713-2.114-.275-.669.176A25.8,25.8,0,0,1,50.5,2.635a17.81,17.81,0,0,1,5.3,3.533c3.033,3,4.872,7.211,6.161,11.2,2.752,8.519,3.672,17.688,4.871,26.522C69.22,61.444,71.61,79.626,81.586,94.737c.839,1.271,12.726,1.421,12.719,1.748A51.414,51.414,0,0,1,109.835,60.9L97.116,59.152c-1.1,10.129-1.761,23.488,7.856,29.89,1.059.705,12.619,2.2,12.718,1.748A64.174,64.174,0,0,1,130.85,63.607l-12.719-1.748c3.19,11.915,7.193,25.406,18.592,31.965,1.1.633,12.574,2.32,12.718,1.748,4.344-17.216-1.052-34.646-8.079-50.352-3.578-8-7.73-15.754-11.108-23.84-1.589-3.8-3.051-8.265-1.588-12.338,1.148-3.195,3.869-5.9,7.421-5.839.838.015-.955-.417-.612-.3a23.593,23.593,0,0,0-3.783-.649,60.962,60.962,0,0,0-7.849-.882" transform="translate(-27.036 -0.001)" fill="#fff"/>
        <path id="Path_4" data-name="Path 4" d="M207.351,53.691A16.91,16.91,0,1,1,187.6,40.212a16.91,16.91,0,0,1,19.754,13.479" transform="translate(-115.992 -26.636)" fill="#94626b"/>
        <g id="Group_3" data-name="Group 3" transform="translate(60.302 15.753)" opacity="0.3">
          <g id="Group_2" data-name="Group 2">
            <g id="Group_1" data-name="Group 1" clip-path="url(#clip-path-3)">
              <path id="Path_5" data-name="Path 5" d="M209.724,58.376a14.438,14.438,0,1,1-15.966-10.894,14.439,14.439,0,0,1,15.966,10.894" transform="translate(-181.254 -47.351)" fill="#e18f8d"/>
            </g>
          </g>
        </g>
        <path id="Path_6" data-name="Path 6" d="M210.1,73.421l2.142,11.345a1.014,1.014,0,0,0,1.7.539l7.489-7.289a1.014,1.014,0,0,0-.314-1.661L211.489,72.3a1.014,1.014,0,0,0-1.39,1.123" transform="translate(-140.188 -48.19)" fill="#fff"/>
        <path id="Path_7" data-name="Path 7" d="M345.007,12.779a23.421,23.421,0,0,0-2.625,3.908c-1.188,1.88-2.621,3.883-3.7,5.964l.083-.016a1.559,1.559,0,0,1,1.687.874c.4-.1.8-.2,1.192-.3a23.866,23.866,0,0,1,4.88-.718c-1.213-3.3-1.966-6.72-.807-10.212.3-.895-.867.65-.711.5" transform="translate(-226.004 -8.009)" fill="#fff"/>
        <path id="Path_8" data-name="Path 8" d="M361.837,107.563a1.683,1.683,0,0,1-1.652-.416,52.857,52.857,0,0,0-11.59,1.173c.351.774.689,1.537,1,2.283a191.571,191.571,0,0,1,8.313,23.787c4.155,15.712,5.229,33.172-1.526,48.345-1.228,2.759,1.811-1.805,2-2.089a67.037,67.037,0,0,0,5.465-9.28c6.639-14.913,6.75-31.287,3.1-47.011a144.327,144.327,0,0,0-5.1-16.793" transform="translate(-232.619 -71.495)" fill="#fff"/>
      </g>
    </g>
  </g>
</svg>
