<svg xmlns="http://www.w3.org/2000/svg" width="76" height="76" viewBox="0 0 76 76">
  <g id="Group_36127" data-name="Group 36127" transform="translate(0.5)">
    <circle id="Ellipse_895" data-name="Ellipse 895" cx="38" cy="38" r="38" transform="translate(-0.5 0)" fill="#7e5462"/>
    <path id="Shape" d="M5.811,0A5.831,5.831,0,0,0,.01,5.522L0,5.869V25.427a5.812,5.812,0,0,0,.028.581l.035.28L18.3,14.024a1.877,1.877,0,0,1,1.925-.134l.223.134L38.682,26.288a5.41,5.41,0,0,0,.056-.569l.007-.292V5.869A5.839,5.839,0,0,0,33.275.011L32.934,0ZM1.9,29.768a5.81,5.81,0,0,0,3.916,1.526H32.934a5.81,5.81,0,0,0,3.916-1.526L19.372,17.994Z" transform="translate(56.873 53.647) rotate(180)" fill="#fff"/>
  </g>
</svg>
