<svg id="Group_36121" data-name="Group 36121" xmlns="http://www.w3.org/2000/svg" xmlns:xlink="http://www.w3.org/1999/xlink" width="240.319" height="207.916" viewBox="0 0 240.319 207.916">
  <defs>
    <clipPath id="clip-path">
      <rect id="Rectangle_7" data-name="Rectangle 7" width="240.319" height="207.916" fill="none"/>
    </clipPath>
    <clipPath id="clip-path-2">
      <rect id="Rectangle_6" data-name="Rectangle 6" width="240.319" height="207.916" fill="#fff"/>
    </clipPath>
    <clipPath id="clip-path-3">
      <rect id="Rectangle_5" data-name="Rectangle 5" width="50.764" height="50.76" fill="none"/>
    </clipPath>
  </defs>
  <g id="Mask_Group_6" data-name="Mask Group 6" clip-path="url(#clip-path)">
    <g id="Group_5" data-name="Group 5">
      <g id="Group_4" data-name="Group 4" clip-path="url(#clip-path-2)">
        <path id="Path_1" data-name="Path 1" d="M334.653,35.059c-4.332,13.048,4.593,26.921,9.424,38.666,5.617,13.658,10.831,27.519,14.61,41.81,7.3,27.618,9.191,58.305-2.682,84.976-2.159,4.85,3.185-3.174,3.513-3.672,3.412-5.183,7.07-10.618,9.6-16.311,11.669-26.212,11.866-54.993,5.451-82.632-3.418-14.727-8.525-29-14.153-43.015-2.685-6.684-5.545-13.291-8.322-19.937-3-7.186-5.77-14.712-3.2-22.448.522-1.574-1.523,1.142-1.25.871-1.754,1.733-3.335,4.845-4.615,6.87-2.9,4.593-6.647,9.6-8.38,14.821" transform="translate(-138.478 -4.984)" fill="#fff"/>
        <rect id="Rectangle_1" data-name="Rectangle 1" width="17.754" height="17.754" transform="translate(160.706 185.243) rotate(-55.693)" fill="#fdc180"/>
        <rect id="Rectangle_2" data-name="Rectangle 2" width="15.496" height="15.496" transform="translate(120.607 177.648) rotate(-55.692)" fill="#fdc180"/>
        <rect id="Rectangle_3" data-name="Rectangle 3" width="15.496" height="15.496" transform="translate(124.673 199.182) rotate(-55.692)" fill="#fdc180"/>
        <path id="Path_2" data-name="Path 2" d="M66.2,117.3c-2.092-10.23-8.987-18.757-19.659-20.644-10.606-1.875-22.218,2.573-30.98,8.322C6.96,110.62.7,118.937.09,129.458c-.45,7.735.89,15.848,2.057,23.456A77.7,77.7,0,0,0,6.538,170.39c7.032,17.421,22.619,36.148,42.835,36.9,23.982.9,37.277-23.323,43.712-42.908,7.464-22.72,13.471-52.475,39.521-60.859,2.235-.719-3.432-23.342-2.958-23.494-19.1,6.148-28.343,25.378-34.042,43.141-6.241,19.452-10.97,41.577-28.7,54.152-15.979,11.334-34.876,6.078-47.939-6.965A68.4,68.4,0,0,1,3.439,146.214c-.467-1.239-.816-2.513-1.262-3.756-1.88-5.24.075,15.24,1.218,8.086a29.911,29.911,0,0,1,1.971-7.483A31.672,31.672,0,0,1,14.048,131.8c7.753-6.593,18.474-11.37,28.673-11.984,11.449-.689,22.99,6.058,25.4,17.853.913,4.466.365-3.875.323-4.322A149.584,149.584,0,0,0,66.2,117.3" transform="translate(0 -33.231)" fill="#fff"/>
        <rect id="Rectangle_4" data-name="Rectangle 4" width="20.982" height="20.982" transform="translate(32.029 124.123) rotate(-55.693)" fill="#fdc180"/>
        <path id="Path_3" data-name="Path 3" d="M186.979,2.408c-5.675-.1-10.274,3.138-12.877,8.12-3.43,6.567-1.92,14.16.518,20.786,5.5,14.953,13.552,29.059,20.108,43.565,12.678,28.048,22.672,59.191,14.889,90.033l22.355,3.072c-20.035-11.529-27.072-35.243-32.678-56.184-.327-1.22-9.865-1.85-11.111-2.022-2.633-.362-5.275-.717-7.924-.944-.571-.049-2.956-.551-3.321-.107a112.788,112.788,0,0,0-23.129,47.779l22.355,3.073c-16.9-11.253-15.746-34.737-13.808-52.538.016-.143-20.837-4.549-22.355-3.072a90.372,90.372,0,0,0-27.3,62.549l22.355,3.073c-15.177-22.99-20.416-50.219-24.229-77.051-1.926-13.549-3.534-27.151-5.966-40.623C102.548,39.081,99.6,24.132,90.2,14.383,79.871,3.677,62.348,2.442,48.524.745A41.9,41.9,0,0,0,41.813.05c-1.525.079-1.37-.274-1.178.219.513,1.316,12.574,2.09,13.7,2.229-10.216-1.254-3.716-.484-1.175.31A45.341,45.341,0,0,1,58.07,4.632a31.305,31.305,0,0,1,9.319,6.21c5.331,5.265,8.563,12.674,10.829,19.69,4.837,14.974,6.454,31.09,8.562,46.618,4.187,30.849,8.389,62.808,25.924,89.368,1.475,2.233,22.369,2.5,22.355,3.073a90.37,90.37,0,0,1,27.3-62.549L140,103.969c-1.937,17.8-3.095,41.284,13.809,52.538,1.862,1.24,22.181,3.874,22.355,3.073a112.8,112.8,0,0,1,23.129-47.78l-22.355-3.072c5.607,20.942,12.643,44.655,32.679,56.184,1.934,1.113,22.1,4.077,22.355,3.072,7.636-30.261-1.85-60.9-14.2-88.5-6.29-14.059-13.587-27.69-19.524-41.9-2.792-6.685-5.362-14.527-2.791-21.686,2.017-5.616,6.8-10.378,13.043-10.263,1.472.027-1.679-.733-1.075-.529a41.47,41.47,0,0,0-6.649-1.141,107.153,107.153,0,0,0-13.8-1.551" transform="translate(-16.823 0)" fill="#fff"/>
        <path id="Path_4" data-name="Path 4" d="M232.756,64.128a29.723,29.723,0,1,1-34.722-23.692,29.722,29.722,0,0,1,34.722,23.692" transform="translate(-72.175 -16.574)" fill="#94626b"/>
        <g id="Group_3" data-name="Group 3" transform="translate(105.992 27.689)" opacity="0.3">
          <g id="Group_2" data-name="Group 2">
            <g id="Group_1" data-name="Group 1" clip-path="url(#clip-path-3)">
              <path id="Path_5" data-name="Path 5" d="M231.295,66.73a25.378,25.378,0,1,1-28.063-19.148A25.38,25.38,0,0,1,231.295,66.73" transform="translate(-181.254 -47.35)" fill="#e18f8d"/>
            </g>
          </g>
        </g>
        <path id="Path_6" data-name="Path 6" d="M210.113,74.333l3.765,19.941a1.783,1.783,0,0,0,3,.947l13.163-12.812a1.782,1.782,0,0,0-.552-2.92l-16.929-7.129a1.783,1.783,0,0,0-2.444,1.974" transform="translate(-87.231 -29.986)" fill="#fff"/>
        <path id="Path_7" data-name="Path 7" d="M349.8,13.368c-1.754,1.733-3.335,4.845-4.614,6.87-2.088,3.3-4.607,6.825-6.5,10.483l.146-.027a2.74,2.74,0,0,1,2.965,1.537c.7-.184,1.4-.359,2.1-.522a41.95,41.95,0,0,1,8.578-1.263c-2.132-5.808-3.456-11.812-1.418-17.95.522-1.573-1.523,1.143-1.25.872" transform="translate(-140.63 -4.984)" fill="#fff"/>
        <path id="Path_8" data-name="Path 8" d="M371.87,107.884a2.959,2.959,0,0,1-2.9-.731,92.9,92.9,0,0,0-20.371,2.062c.617,1.361,1.211,2.7,1.75,4.013,5.617,13.658,10.831,27.519,14.611,41.81,7.3,27.618,9.191,58.305-2.682,84.976-2.159,4.85,3.184-3.173,3.512-3.671,3.413-5.183,7.071-10.618,9.606-16.312,11.669-26.212,11.865-54.993,5.45-82.631a253.682,253.682,0,0,0-8.972-29.516" transform="translate(-144.746 -44.487)" fill="#fff"/>
      </g>
    </g>
  </g>
</svg>
