<svg xmlns="http://www.w3.org/2000/svg" width="1366" height="762" viewBox="0 0 1366 762">
  <path id="Path_248" data-name="Path 248" d="M583.042,741.763l-7.975-7.7,15.21-3.938,22.866-5.92,1.814,1.012,64.132,35.776H602.942Zm122.628,8.76L752.856,724.2l18.249,4.725,19.825,5.132-1.178,1.139-26.693,25.791H686.91Zm560.373-8.76-7.975-7.7,15.211-3.938,22.866-5.92,1.814,1.012,25.378,14.157,38.754,21.619h-76.148ZM22.672,750.52,69.857,724.2l18.112,4.689,19.962,5.168-27.872,26.93H3.911ZM544,747.324l-14.323-23.971,42.828,11.09,27.477,26.546H552.162Zm249.5-12.882,42.831-11.09-22.488,37.636H766.021ZM1227,747.324l-14.323-23.971,42.828,11.09,27.477,26.546h-47.817ZM110.5,734.44l42.831-11.09L130.84,760.986H83.022Zm728.384-11.315,39.19,21.861-28.689,16H816.257ZM487.928,744.987l39.191-21.863,14.343,24,8.282,13.86H516.617Zm683,0,39.191-21.863,14.343,24,8.282,13.86h-33.126ZM155.882,723.122l39.188,21.861-28.686,16H133.258Zm227.1.941.562-.941,21.911,12.222,17.279,9.638-28.689,16H360.923Zm683.069-.114.495-.827,21.911,12.222,17.279,9.638-28.688,16h-33.126ZM260.26,744.984l39.19-21.862.739,1.237h0l12.678,21.219,9.208,15.41H288.949Zm683,0,39.19-21.862.738,1.237h0l12.329,20.634,9.557,16H971.951ZM456.38,729.72v-1.166l8.671-4.836,19.736-11.008V744.4l-.206.114-26.949,15.032-1.252.7Zm683,0v-1.166l9.109-5.081,19.3-10.764V744.4l-.175.1-28.231,15.748ZM198.212,744.4V712.707l28.406,15.845v31.692h0Zm30.5,15.845V728.552l10-5.577,18.408-10.268V744.4l-28.406,15.845ZM442.725,753.8l-16.847-9.4V712.707l28.409,15.845v31.694Zm438.489-9.4V712.707l28.406,15.845v31.692h0Zm30.5,15.845V728.552l10-5.577,18.408-10.268V744.4l-28.406,15.845Zm208.546-9.5-11.38-6.348V712.707l28.409,15.845v31.694ZM315.4,745.773l-14.139-23.662,4.99-2.784,34.2-19.075v60.735H324.494Zm27.141-45.521,20.332,11.341,18.856,10.518h0L358.5,760.986H342.545Zm655.227,44.461-13.5-22.6,4.991-2.784,34.2-19.075v60.735H1007.5Zm27.775-44.461,20.332,11.341,18.856,10.518h0l-23.228,38.875h-15.96ZM530.216,721.4l38.95-21.728L596.2,714.752l14.376,8.018-14.238,3.686-23.3,6.031Zm683,0,38.949-21.728,28.141,15.7,13.272,7.4-14.238,3.686-23.3,6.031ZM773.184,727.37l-17.764-4.6,41.018-22.882.393-.219L835.784,721.4l-42.831,11.09Zm-683.152-.043-17.61-4.559,41.409-23.1L152.783,721.4l-42.829,11.089Zm544.533,6.487-18.56-10.354-1.815-1.012-10.2-36.787,9.781,2.532,28.292,7.323,38.075,63.719Zm89.371-38.3,38.074-9.855-10.2,36.787-1.814,1.011h0l-55.12,30.748-9.016,5.03Zm575.07,27.944-1.814-1.012-10.2-36.787,10.057,2.6,28.017,7.252,24.265,40.608,13.809,23.111ZM3.036,758.941l37.9-63.427,38.074-9.855-10.2,36.787L67,723.458,11.876,754.206l-9.017,5.03Zm483.845-47.713,16.565-27.719,22.624,37.863-39.188,21.86Zm683,0,16.564-27.719,12.524,20.96,10.1,16.9-39.188,21.86Zm-765.318,21.28L384.6,721.37l11.076-18.535,11.549-19.326,16.562,27.716v32Zm683,0L1067.6,721.37l11.536-19.3,11.09-18.558,16.562,27.716v32ZM158.212,722.085l-1.283-.715,22.624-37.864,16.564,27.719v32Zm101-10.86,16.564-27.719L298.4,721.369l-17.709,9.88-21.48,11.983ZM839.931,721.37l22.624-37.864,16.564,27.719v32.006Zm102.284-10.145,16.564-27.719L981.4,721.369l-17.709,9.88-21.48,11.983Zm-485.834-27.3V682.5h45.251l-16.564,27.719-28.687,16Zm683,0V682.5h45.25l-16.564,27.719-28.687,16Zm-941.45,26.289-16.564-27.72h45.251v43.722Zm30.781-27.72h45.251L257.4,710.214l-3.618,2.018-25.069,13.984ZM425.6,710.214l-16.563-27.72h45.253v43.722Zm458.955,2.018-3.619-2.018-16.564-27.72h45.25v43.722Zm27.162-29.738h45.251L940.4,710.214l-3.618,2.018-25.069,13.984Zm196.884,27.72-16.563-27.72h45.253v43.722Zm-592.626-9.788-11.318-18.941.6-1.012,7.374-12.34,10.224,5.7L567.071,698.5l-39.187,21.86Zm671.684-18.941.6-1.012,7.374-12.34,9.741,5.434,44.7,24.934-25.7,14.334-13.492,7.526ZM115.929,698.5l54.437-30.368,7.374,12.341.6,1.012-23.228,38.876Zm683,0,54.438-30.369,7.374,12.341.6,1.012-23.228,38.877Zm-154-2.241-.441-.737-.606-1.015,10.2-36.787,6.743,6.515,21.129,20.417v73.574Zm39.121-9.584V684.65l27.875-26.932,3.195,11.517,7.009,25.269-38.078,63.72Zm659.907,36.4-16.026-26.821-.5-.832-.549-.92,10.2-36.787,6.742,6.515,21.129,20.417v73.574ZM1.047,686.671v-2.023l27.875-26.932,6.377,22.99,3.826,13.8L1.047,758.221Zm74.387,19.7,6-21.623,31.353-30.293v43.454l-3.332,1.859-38.079,21.24Zm520.828,6.073-26.05-14.531V654.459l29.708,28.7,1.647,1.592,10.057,36.263Zm162.3-6.533,5.869-21.161,26.174-25.289,5.182-5.006v43.455l-3.995,2.229-37.419,20.873ZM1280.252,713l-27.037-15.082V654.459l29.707,28.7,1.648,1.592,10.057,36.263Zm-756.83-41.184-9.742-5.435,7.978-13.353h46.46v43.721Zm80.354,11.7-.726-.188-28.5-27.539-2.853-2.756h44.979l23.908,40.01Zm132.6-8.816,12.948-21.667h44.98l-2.852,2.756-28.5,27.539-.83.215-36.7,9.5Zm469.514-3.177-9.21-5.138,7.979-13.353h46.46v43.721Zm80.16,11.8-31.356-30.3h44.979l23.909,40.01ZM66.327,653.025h44.981l-31.356,30.3-37.534,9.715Zm48.556,0H161.34l7.979,13.353-2.411,1.345-49.942,27.861-2.083,1.16Zm683,0v0h46.46l7.978,13.353-3.968,2.214L800.21,695.447l-2.328,1.3ZM305.824,704.043l7.152-25.784,27.475-26.546v46.2L301.5,719.645Zm56.042,4.649-19.322-10.778v-46.2l9.338,9.021,18.141,17.525,8.8,31.747,2.672,9.636Zm626.958-4.649,7.152-25.784,27.475-26.546v46.2L984.5,719.645Zm56.043,4.649-19.321-10.778v-46.2l9.337,9.021,18.14,17.525,8.8,31.747,2.672,9.636Zm-668.9-16.807-3.923-14.15,2.566-9.253,7.491-27.008,23.908,40.01-11,18.406-11.491,19.228Zm683,0-3.923-14.15,2.394-8.631,7.664-27.63,23.909,40.01-10.694,17.9-11.8,19.738Zm-781.984-10.4.6-1.012,23.3-39,10.057,36.263-5.12,18.458-6.358,22.922Zm683,0,.6-1.012,23.3-39,10.057,36.263-5.12,18.458-6.358,22.922Zm-723.02-7.556,24.581-23.749,37.532-9.717-23.909,40.01H230.194Zm683,0,24.582-23.749,37.533-9.717-23.909,40.01H913.2ZM383.916,640.46l37.534,9.718,26.369,25.475,4.986,4.817h-44.98Zm683,0,37.534,9.718,24.582,23.749,6.774,6.544h-44.98ZM456.38,680.47V636.752l45.23,25.231,9.209,5.138-7.978,13.353H456.38Zm683,0V636.752l44.7,24.934,9.742,5.434-7.979,13.353h-46.46Zm-967.2-13.352.239-.133,54.2-30.234V680.47h-46.46Zm683,0,1.247-.7,53.191-29.671V680.47h-46.46Zm-236.089-14.09-.6-1.012L628.9,634.6l12.079-20.214,11.478,41.38L642.4,692.026Zm683,0-.6-1.012,10.491-17.557,12-20.077,11.478,41.38L1325.4,692.026Zm-582.5,24.536-6.047-21.8,9.272-33.438,2.2-7.945,11.8,19.739,10.694,17.9L723.6,692.024Zm-682.832.6-6.213-22.4,9.272-33.438,2.2-7.945L53.514,633.6l11,18.405-23.908,40.01Zm647.284-41.409v-1.168l19.322-10.778L723,613.856l-2.672,9.636-8.8,31.747-27.478,26.548Zm-23.426,24.423-6.142-5.936-7.152-25.784L643,613.853l1.808,1.009,37.147,20.722v46.2Zm683,0-6.142-5.936-7.152-25.784-4.328-15.6,4.838,2.7,34.116,19.031v46.2ZM1.047,636.749v-1.168l9.766-5.447L40,613.853l-2.672,9.636-8.8,31.747L2.709,680.18l-1.662,1.606Zm501.077,23.185L457.428,635l.342-.19,38.846-21.67,23.229,38.876-.605,1.012-7.373,12.341Zm682.52-.268L1140.429,635l.161-.09,39.026-21.77,23.229,38.876-.6,1.012h0l-7.374,12.341ZM163.154,652.013l23.229-38.875L225.568,635,198.35,650.183l-27.218,15.183Zm683,0,23.228-38.875L908.569,635l-27.218,15.183-27.218,15.183Zm-418.883.928-4.342-4.195-10.057-36.263,20.852,11.632,20.561,11.469v43.455Zm682.6-.389-3.939-3.806-10.057-36.263,21.134,11.789,20.279,11.312v43.455ZM228.712,635.584l41.413-23.1-10.057,36.266-21.723,20.986-9.633,9.307Zm683,0,41.413-23.1L943.07,648.747l-21.722,20.986-9.634,9.307ZM539.045,623.932l.387-.648h0l28.687-16V651H522.868Zm31.168-16.65,28.687,16h0l.358.6L615.464,651H570.213Zm192.522,23.3,4.363-7.3,28.69-16V651H750.535Zm459.7-7.3,28.687-16V651h-45.251Zm30.782-16,28.687,16L1298.465,651h-45.25ZM114.882,649.57V607.282l9.078,5.065,19.606,10.938L160.128,651H114.882ZM84.1,623.282l24.973-13.928,3.714-2.072V651H67.536Zm713.783,26.292V607.28l8.849,4.938,19.837,11.067L843.129,651H797.882ZM188.713,612.1l23.791-6.159,19.04-4.929,37.534,9.715-41.414,23.1Zm236.152,4.734-10.948-6.107,37.534-9.715,19.3,5,23.533,6.092-38.952,21.73ZM871.714,612.1l23.791-6.159,19.04-4.929,37.534,9.715-41.414,23.1Zm237.552,5.514-12.347-6.888,37.534-9.715,19.13,4.952,23.7,6.136-38.952,21.73ZM737.631,631.432l-11.536-19.3,38.561-21.51.627-.349v32l-15.514,25.964-1.047,1.753Zm-239.2-19.3,39.189-21.86v32l-16.565,27.719Zm102.284,10.144v-32l30.312,16.908,8.878,4.953-22.625,37.862Zm580.717-10.144,39.189-21.86v32l-16.564,27.719Zm102.284,10.144v-32l30.312,16.908,8.877,4.953-22.625,37.862ZM54.174,630.661,43.1,612.126l38.562-21.509.627-.35v32L66.771,648.234l-1.048,1.753Zm91.206-8.388V590.267l39.188,21.859-7.758,12.984-14.867,24.881Zm683,0V590.267l39.188,21.859-22.625,37.865Zm-526.005,16.72,38.074-63.716v73.574l-27.872,26.93Zm683,0,38.074-63.716v73.574l-27.872,26.93Zm-633.76,18.623-9.073-8.766V575.276l38.078,63.718-3.429,12.363-6.774,24.423Zm683,0-9.073-8.766V575.276l38.077,63.718-7.146,25.763-3.058,11.023ZM272.691,611.05l65.945-36.785-38.074,63.717-38.074,9.858Zm683,0,65.945-36.785-38.074,63.717-38.074,9.858Zm71.667-36.789,61.759,34.451,4.043,2.255v0l.148.082,10.2,36.787-38.074-9.858-23.668-39.606-14.411-24.114h0Zm-683,0,61.76,34.452,4.043,2.255v0l.148.082,10.2,36.787-38.074-9.858-28.807-48.2-9.272-15.515h0ZM539.713,589.1l28.406-15.848v31.692l-10.3,5.745-18.107,10.1Zm30.5,15.844V573.254L598.619,589.1v31.69Zm652.5-15.844,28.406-15.848v31.692l-10,5.577-18.408,10.268Zm30.5,15.844V573.254l28.406,15.848v31.69ZM123.582,609.8l-8.7-4.853V573.253l15.7,8.758,12.706,7.089v31.693Zm643.8-20.7,28.409-15.849v31.694l-28.409,15.845Zm-683,0,12.353-6.891,16.053-8.956v31.694L84.38,620.789ZM806.33,609.657l-8.449-4.714V573.251l21.3,11.886,7.1,3.962v31.693ZM601.764,588.517l28.687-16h33.125L641.69,609.141h0l-.739,1.236Zm41,22.871L656.8,587.9l9.195-15.389h15.957v60.735Zm41.28-38.875h15.961l23.228,38.875h0l-18.856,10.518-20.332,11.341Zm40.508,37.036-22.129-37.036H735.55l28.686,16-.627.35-38.561,21.509Zm560.212-21.032,28.687-16h33.125l-21.886,36.629h0l-.739,1.236Zm41,22.871,13.56-22.694L1349,572.512h15.957v60.735ZM1.047,572.51H17.007l23.229,38.875h0l-15.042,8.39L1.047,633.244Zm18.378,0H52.55l28.687,16-.627.35L42.05,610.373Zm166.19,37.863-36.143-20.16-3.045-1.7,28.689-16h33.125l-22.625,37.865Zm25.045-37.863h47.818L231,599.058l-29.649,7.676-13.179,3.412Zm22.906,26.932,27.875-26.932H337.59L275.5,607.148l-2.039,1.138h0l-1.814,1.012ZM345.41,572.51h76.148l16.326,15.775,11.546,11.156L411.355,609.3Zm139.218,35-32.633-8.447-11.382-11L424.52,572.51h47.818l22.489,37.636Zm-9.872-35h33.126l28.687,16-39.188,21.86Zm393.862,37.863-36.143-20.16-3.045-1.7,28.69-16h33.125l-22.625,37.865Zm25.046-37.863h47.818L914,599.058l-29.649,7.676-13.179,3.412Zm22.906,26.932,27.874-26.932h76.148L958.5,607.148l-2.04,1.138h0l-1.814,1.012Zm111.842-26.932h76.148l16.326,15.775,11.546,11.156-38.074,9.855Zm138.959,34.929L1135,599.059l-11.382-11-16.094-15.551h47.818l22.488,37.636Zm-9.613-34.929h33.125l28.687,16-39.188,21.86Zm-585.284-.332-1.213-.677,2.409-1.344,26-14.5L628.075,571.5l-28.405,15.847ZM763.6,585.824,737.925,571.5l10.109-5.639,18.3-10.206,16,8.924,12.407,6.921-28.405,15.847Zm491.693-13.749-1.029-.574,3.439-1.919,24.967-13.926,28.408,15.845-28.4,15.847ZM522.431,578.29,510.257,571.5l10.874-6.065,17.531-9.779L567.068,571.5l-28.4,15.847Zm683,0-12.174-6.792,10.109-5.639,18.3-10.206,28.406,15.845-28.4,15.847ZM79.081,584.974,54.926,571.5,65.8,565.433l17.532-9.779,11.362,6.338,17.044,9.507L83.332,587.346Zm51.913-5.069L115.927,571.5l1.183-.66,27.223-15.185L172.741,571.5l-28.408,15.847Zm689.238,3.479-21.3-11.886,28.406-15.845L855.743,571.5l-28.408,15.847ZM241.542,551.261l-7.975-7.7,22.827-5.91,15.249-3.948,1.814,1.012,64.131,35.775H261.441Zm122.629,8.759L411.355,533.7l18.248,4.725,19.825,5.133L448.25,544.7l-26.693,25.79H345.409Zm560.372-8.759-7.974-7.7,22.827-5.91,15.249-3.948,1.814,1.012,33.657,18.775,30.475,17H944.443Zm128.521,5.473,41.293-23.035,22.689,5.875,15.385,3.983-27.872,26.93h-76.148Zm-850.217.674L188.173,532.85,231,543.94l27.478,26.546H210.661ZM451.994,543.94l42.831-11.09-22.489,37.636H424.52Zm433.5,12.882L871.175,532.85,914,543.94l27.477,26.546H893.663ZM1135,543.94l42.831-11.09-22.488,37.636h-47.818ZM725.048,532.625l19.649,10.96,19.542,10.9L738.584,568.8l-3.034,1.692H702.425ZM601.761,554.488l39.19-21.862.739,1.237h0l12.678,21.218,9.208,15.41H630.45Zm683,0,39.189-21.862.739,1.237h0l12.329,20.634,9.557,15.995h-33.125ZM497.38,532.624l39.188,21.861-28.686,16H474.756Zm683,0,39.188,21.861-27.485,15.332-1.2.669h-33.126Zm-1138.332,0,8.4,4.685L81.24,554.483l-28.689,16H19.425Zm104.378,21.862,39.19-21.863,14.477,24.228,8.148,13.636H175.117Zm683,0,39.19-21.863,14.343,24,8.282,13.859H858.119ZM539.713,553.9V522.211l28.406,15.845v31.692Zm30.5,15.846V538.055l8.67-4.837,19.736-11.008V553.9l-.206.115L571.464,569.05l-1.251.7ZM767.378,553.9V522.211l24.612,13.727,3.8,2.117V569.75Zm455.336,0V522.211l28.406,15.845v31.692Zm30.5,15.846V538.055l9.108-5.081,19.3-10.764V553.9l-.223.124L1255.623,568.4l-2.408,1.344ZM114.882,539.221v-1.17l8.668-4.835,19.736-11.008V553.9l-.205.115-26.949,15.032-1.249.7Zm683,0v-1.171l9.108-5.081,19.3-10.764V553.9l-.223.125-28.183,15.72ZM84.38,553.9V522.207l25.864,14.426,2.542,1.417v31.694h0ZM656.9,555.276l-14.139-23.662,3.011-1.68,36.174-20.179v60.734H665.995Zm27.141-45.521,22.822,12.729,16.366,9.13h0l-23.228,38.875H684.045Zm655.227,44.461-13.505-22.6,3.011-1.68,36.174-20.179v60.734H1349ZM1.047,509.752l24.146,13.469,15.042,8.39h0L17.007,570.486H1.047Zm454.283-.583L494.28,530.9l-42.828,11.089-19.768-5.118-17.763-4.6,40.366-22.519v0Zm683,0,38.95,21.727-42.828,11.089-19.922-5.158-17.61-4.56,40.366-22.519v0ZM188.715,530.9l38.95-21.727L254.7,524.25l14.375,8.018-22.607,5.853-14.928,3.865Zm683,0,38.95-21.727L937.7,524.25l14.375,8.018-22.606,5.853-14.928,3.865ZM293.066,543.312l-18.561-10.354-1.814-1.011-10.2-36.787,38.074,9.855,12.373,20.706,25.7,43.012Zm89.37-38.3,38.074-9.855-10.2,36.787-1.813,1.011h0l-55.12,30.748-9.017,5.029Zm575.07,27.943-1.814-1.011-10.2-36.787,10.058,2.6,28.016,7.252,24.265,40.609,13.809,23.111Zm70.028,35.483,37.9-63.427,38.074-9.855-10.2,36.787-1.813,1.011-55.119,30.748-9.017,5.029ZM745.625,541.767,726.1,530.873l22.627-37.86,16.561,27.717v32ZM499.71,531.586l-1.279-.714,22.624-37.862,16.565,27.719v32Zm101-10.856,16.565-27.719,8.447,14.136L639.9,530.872l-39.19,21.862Zm582,10.856-1.279-.714,22.624-37.862,16.564,27.719v32Zm101-10.856,16.564-27.719,22.625,37.862-22.388,12.49-16.8,9.373ZM63.066,542.009,43.1,530.87l11.077-18.534,11.55-19.327,16.562,27.717v32Zm82.314-21.282,16.564-27.72,22.624,37.863L145.38,552.729Zm683,0,16.565-27.72L867.57,530.87l-39.188,21.859Zm-288.949-1.01L522.868,492h45.251v43.721ZM570.213,492h45.251L598.9,519.717l-28.687,16ZM791.021,533.06,767.1,519.717,750.535,492h45.252v43.721Zm431.413-13.343L1205.869,492h45.251v43.721ZM1253.215,492h45.25L1281.9,519.717l-28.687,16ZM109.071,533.643,84.1,519.714,67.536,491.995h45.25v43.719Zm5.811-40.216v-1.431h45.248l-16.564,27.72-28.684,16Zm683,0V492h1.481l0,0h43.772l-16.564,27.72-28.686,16ZM1140.432,508l54.436-30.367,7.375,12.34h0l.6,1.012L1191.6,509.8l-11.987,20.061Zm-683,0,54.436-30.368,7.373,12.341.605,1.012-11.318,18.941-11.911,19.934ZM174.4,509.8l-11.242-18.814.6-1.012,7.374-12.34,10.223,5.7L225.571,508l-39.187,21.86Zm683.077.128-11.317-18.942.6-1.012,7.374-12.34,10.223,5.7L908.572,508l-39.187,21.86Zm-554.05-4.169h0l-.441-.738L302.376,504l10.2-36.787,27.872,26.932v73.574Zm39.122-9.584v-2.024l27.875-26.932,6.774,24.423L380.623,504l-38.078,63.72Zm659.906,36.4-16.026-26.82-.5-.832-.549-.92,10.2-36.787,27.872,26.932v73.574Zm23.1-36.4v-2.024l27.874-26.932,3.058,11.023L1063.624,504l-38.077,63.72ZM254.763,521.946l-26.051-14.531V463.957l29.709,28.7,1.647,1.592,10.057,36.263Zm162.3-6.533,5.869-21.16,28.5-27.539,2.853-2.757v43.455l-3.922,2.188-37.491,20.913Zm520.7,6.533-26.051-14.531V463.957l29.709,28.7,1.648,1.592,10.057,36.263Zm162.3-6.533,5.87-21.16,26.174-25.289,5.182-5.007v43.455l-3.995,2.229-37.418,20.873Zm-643.682-9.17V462.529h46.46l7.978,13.352-1.616.9-50.991,28.445-1.832,1.02Zm683,0V462.529h46.46l7.979,13.352h0l-3.968,2.213-48.143,26.856-2.328,1.3Zm-957.46-24.93-9.742-5.435,7.979-13.352h46.46v43.721Zm80.353,11.7-.726-.188-28.5-27.539-2.853-2.756h44.979l23.909,40.01Zm145.55-30.483H452.8l-31.356,30.3-.712.184-36.822,9.531Zm457.1,18.787-9.742-5.435,7.978-13.352h46.46v43.721Zm80.353,11.7-.726-.188-28.5-27.539-2.853-2.756h44.979l23.909,40.01Zm133.491-10.3,12.059-20.181h44.981l-2.853,2.756-28.5,27.539-.829.215-36.7,9.5Zm-429.1,22.415,4.815-17.359,27.474-26.546v46.2l-24.2,13.5L643,529.148ZM704.815,519l-20.769-11.585v-46.2l9.338,9.021,18.139,17.525,6.2,22.37L723,529.146Zm627.849-13.881,4.815-17.359,27.474-26.546v46.2l-24.2,13.5L1326,529.148ZM10.813,512.863l-9.766-5.448v-46.2l10.194,9.848,17.284,16.7,8.8,31.747L40,529.143ZM715.269,493.45l-1.722-6.211,2.566-9.252,7.491-27.008,23.909,40.011-22.491,37.633Zm-96.782-2.464.6-1.012,23.3-39,10.057,36.263L647.334,505.7l-6.359,22.923Zm683,0,.6-1.012,23.3-39,10.057,36.263-5.119,18.458-6.359,22.923ZM34.472,501.385l-3.924-14.149,2.477-8.932,7.58-27.329,23.909,40.01-11,18.406L42.024,528.619Zm544-17.956,24.582-23.748,37.532-9.717-23.908,40.01H571.694Zm681.214,1.727,26.37-25.475,37.532-9.717-23.909,40.01H1254.7ZM725.416,449.964l37.534,9.718,24.582,23.748,6.773,6.544h-44.98ZM57.663,475.474,42.417,449.96l37.534,9.718,24.582,23.749,6.774,6.544H66.327Zm456.017,1.147,1.248-.7,53.191-29.671v43.719h-46.46Zm683,0,54.439-30.367v43.719h-46.46Zm-1081.8-30.37,45.226,25.229,9.21,5.138-7.979,13.352H114.882Zm683,0,44.7,24.934,9.742,5.435-7.978,13.352h-46.46Zm-520.29,16.275-.6-1.012L287.4,444.095l12.079-20.214,11.478,41.381L300.9,501.524Zm683,0-.6-1.012,10.491-17.557,12-20.077,11.478,41.381L983.9,501.524Zm-582.5,24.536-6.046-21.8,9.8-35.35,1.673-6.033,11.835,19.8,10.655,17.83L382.1,501.522Zm683.342,1.227-6.387-23.028,6.2-22.371,5.272-19.012,22.491,37.633L1065.1,501.522ZM342.545,446.25v-1.168L363.314,433.5,381.5,423.354l-2.2,7.945-9.272,33.438-27.478,26.549Zm683,0v-1.168l20.769-11.585,18.184-10.143-5.272,19.012-6.2,22.371-27.477,26.549ZM319.119,470.673l-6.143-5.936-4.815-17.359L301.5,423.352l14.756,8.231,24.2,13.5v46.2Zm683,0-6.143-5.936-4.815-17.359L984.5,423.352l14.756,8.231,24.2,13.5v46.2Zm-497.465-9.156,23.228-38.875L567.068,444.5l-27.218,15.183-27.218,15.183Zm683,0,23.229-38.875L1250.07,444.5l-54.436,30.366Zm-344.512,7.647L798.934,444.5l39.183-21.861,11.911,19.933,11.317,18.941-.6,1.012-7.374,12.34Zm-682.52.268L115.931,444.5l39.185-21.861,23.228,38.875-.6,1.012-7.374,12.34Zm607.747-7.376-3.939-3.806-10.057-36.263,21.134,11.789,20.279,11.312v43.455Zm-683,0-3.939-3.806L71.375,421.985l21.988,12.264,19.423,10.834v43.454Zm484.841-16.966,41.413-23.1L601.569,458.25l-21.722,20.986-9.633,9.307Zm683,0,41.412-23.1L1284.57,458.25l-23.05,22.268-8.305,8.024ZM456.38,459.071V416.784l9.081,5.066,19.606,10.938L501.628,460.5H457.859l0,0H456.38Zm683,0V416.784l8.849,4.937,19.837,11.068L1184.63,460.5h-43.769l0,0h-1.481Zm-941.45-26.288,28.686-16V460.5H181.367Zm30.781-16,28.687,16L273.963,460.5H228.712Zm652.221,16,28.686-16V460.5h-45.25Zm30.781-16,28.687,16L956.965,460.5H911.714Zm-486.117,16,24.973-13.929,3.717-2.073V460.5H409.033Zm683,0,23.923-13.343,4.766-2.659V460.5h-45.253ZM530.214,421.605,554,415.446l19.041-4.929,37.534,9.715-41.414,23.1Zm237.552,5.515-12.347-6.888,37.535-9.716,19.3,5,23.528,6.091L796.834,443.33l-1.047-.585v.006Zm445.45-5.515,25.485-6.6,17.346-4.49,37.534,9.715-41.414,23.1ZM100.4,435.836,72.419,420.23l37.535-9.715,19.129,4.952,23.7,6.135L113.832,443.33l-1.047-.585h0Zm386.484-4.059V399.77l39.188,21.859L503.444,459.5Zm683,0V399.77l39.188,21.859L1186.446,459.5ZM839.932,421.629l39.187-21.86v32L862.555,459.49ZM157.67,422.866l-.739-1.238,39.187-21.861v32L179.553,459.49Zm238.517,18.158-11.592-19.4,28.166-15.711,11.022-6.149v32l-15.514,25.964h0l-1.048,1.753Zm671.409-19.4,28.166-15.711,11.022-6.149v32l-15.514,25.964h0l-1.047,1.753ZM259.213,431.771v-32L298.4,421.628,275.777,459.49Zm683,0v-32L981.4,421.628,958.779,459.49ZM643.877,448.5l31.961-53.486,6.113-10.23v73.574l-27.871,26.93Zm683,0,28.8-48.193,9.276-15.524v73.574l-27.871,26.93ZM693.118,467.12l-9.073-8.765V384.78L722.123,448.5l-7.009,25.269-3.195,11.517ZM1.047,458.352V384.778l32.5,54.377,5.582,9.34-3.826,13.8-6.377,22.99Zm613.144-37.8,65.946-36.784-8.031,13.439-30.044,50.277-38.074,9.858Zm683,0,65.946-36.784-10.8,18.071-27.275,45.645-38.074,9.858ZM685.859,383.764l43.607,24.326,22.2,12.381v0l.148.083,10.2,36.787-38.074-9.858-13.313-22.278-24.766-41.442h0Zm-683,0,65.8,36.707v0l.148.082,10.2,36.787-38.074-9.858L29.169,427.788,2.859,383.762l0,0ZM465.083,419.3l-8.7-4.856V382.754L484.787,398.6v31.692Zm682.748-.142-8.449-4.714V382.754l28.406,15.848v31.692ZM881.214,398.6l28.406-15.848v31.692l-9.108,5.081-19.3,10.764Zm-683,0,28.406-15.848v31.693l-8.671,4.837-19.735,11.008Zm30.5,15.845V382.751L257.119,398.6v31.69Zm683,0V382.751L940.12,398.6v31.69ZM425.877,398.6l28.409-15.849v31.694l-28.409,15.845Zm683,0,27.85-15.537.559-.312v31.695l-28.409,15.845ZM527.116,419.877l-36.143-20.16-3.045-1.7,28.689-16h33.126l-22.625,37.865Zm25.046-37.863H599.98L572.5,408.562l-29.649,7.676-13.179,3.412Zm22.905,26.932,27.875-26.932H679.09l-62.392,34.8-1.74.97-1.814,1.012Zm141.091-10.617L686.91,382.014h76.149l16.326,15.775,11.545,11.157L752.856,418.8Zm109.97,18.681-32.633-8.448-11.381-11-16.093-15.55h47.817l22.488,37.636Zm-9.871-35h33.126l28.684,16-39.186,21.86Zm354.673,16,28.689-16h33.126l-22.625,37.864Zm64.234-16h47.817L1255.5,408.562l-29.649,7.676-13.179,3.412Zm22.905,26.932,27.875-26.932h76.148l-62.392,34.8-1.74.97-1.813,1.012ZM32.178,397.779,3.911,382.011H80.059l16.326,15.775,11.546,11.157L69.857,418.8ZM142.871,416.94,110.5,408.559l-11.382-11-16.094-15.55H130.84l22.488,37.636Zm-9.613-34.929h33.126l28.685,16-39.187,21.86Zm145.7,26.433-18.7-10.429,28.686-16h33.126L313.116,397l-12.927,21.635h0l-.739,1.237Zm22.306,12.442,14.36-24.032,8.869-14.843h15.957v60.734Zm41.28-38.875H358.5l23.229,38.875h0l-16.366,9.129-22.822,12.73Zm40.475,36.981-22.1-36.981h33.125l28.687,16-11.022,6.149-28.166,15.711Zm560.245-20.977,28.687-16h33.126L983.19,418.64v0l-.739,1.237Zm41,22.871,13.821-23.131,9.408-15.744h15.957v60.734Zm41.28-38.875h15.96l23.228,38.875-16.366,9.129-22.821,12.73Zm18.378,0h33.126l28.686,16-39.188,21.859Zm-584.734-.026L457.428,381l12.722-7.1,15.684-8.749L514.242,381,485.833,396.85ZM851.758,381l7.685-4.287,20.721-11.559L908.569,381l-28.406,15.848Zm288.672,0,21.674-12.09,6.731-3.755,27.777,15.492.632.353-28.409,15.848Zm-971.671,0,6.4-3.567,22.01-12.278,1.047.584L225.571,381l-28.406,15.848Zm61,0,27.359-15.261,1.047-.584L286.575,381l-28.406,15.848Zm166.664,0,28.406-15.845,9.584,5.346L453.236,381,424.83,396.847Zm516.337,0,27.359-15.261,1.047-.584L969.575,381,941.17,396.847Zm166.664,0,6.4-3.567,22.011-12.278,9.584,5.346,18.822,10.5-28.406,15.848ZM581.389,359.168l-6.322-6.107,38.077-9.858,38,21.2L679.09,379.99H602.942ZM752.856,343.2l19.026,4.926,19.048,4.932-14.079,13.6L763.058,379.99H686.91Zm511.535,15.965-6.322-6.107,38.077-9.858,38,21.2,27.942,15.587h-76.148ZM69.857,343.2l19.506,5.05,18.569,4.808-14.242,13.76-13.63,13.169H3.911Zm461.287,1.614-1.47-2.461,18.244,4.724,24.585,6.366,6.578,6.355,20.9,20.191H552.162Zm248.47,22.042,13.881-13.413,19.061-4.935,23.77-6.155L813.838,379.99H766.021Zm434.532-22.042-1.471-2.461,18.244,4.724,24.584,6.366,6.578,6.355,20.9,20.191h-47.817ZM96.452,367.011,110.5,353.441l19.377-5.017,23.454-6.073L130.84,379.987H83.022Zm742.428-24.884,39.19,21.861-20.7,11.546-7.99,4.457H816.257ZM487.928,363.988l39.191-21.863,22.625,37.865H516.617Zm683,0,39.191-21.863,22.625,37.865h-33.126ZM155.882,342.123l39.188,21.862-28.686,16H133.258Zm227.665,0,1.283.716,19.3,10.765,18.609,10.38-10.5,5.856-18.191,10.148H360.923Zm683,0,1.283.716,19.3,10.765,18.61,10.38-28.689,16h-33.126ZM260.26,363.985l39.189-21.862.739,1.237h0l21.886,36.628H288.949Zm683,0,39.189-21.862.739,1.237h0l21.887,36.628H971.951ZM456.38,348.722v-1.166l28.406-15.845V363.4l-.124.069L456.38,379.249Zm683,0v-1.165l8.423-4.7,19.983-11.147V363.4l-.076.042-28.33,15.8Zm-927.67,22.209-13.5-7.53V331.709l28.406,15.845v31.693Zm17-22.209v-1.168l28.406-15.845V363.4l-.146.081-13.354,7.449-14.907,8.315Zm652.5,14.679V331.709L901.2,342.855l8.423,4.7v31.693Zm30.5-14.679v-1.168l28.406-15.845V363.4l-.146.081-13.354,7.449-14.907,8.315ZM425.877,363.4V331.708l28.409,15.845v31.694Zm683,0V331.708l26.971,15.044,1.438.8v31.694Zm-807.613-22.29,39.186-21.859v60.735H324.494Zm41.28-21.859,39.189,21.859L358.5,379.987H342.545Zm641.722,21.859,39.186-21.859v60.735H1007.5Zm41.28-21.859,39.188,21.859-23.228,38.875h-15.96ZM548.46,345.123,530.216,340.4l29.651-16.541,9.3-5.187,1.047.584h0l40.366,22.516-37.535,9.718Zm683,0-18.243-4.724,30.151-16.819,8.8-4.908,1.048.584h0l40.365,22.516-37.535,9.718Zm-457.113,1.549-18.926-4.9,41.41-23.1L835.784,340.4l-23.77,6.155-19.061,4.935Zm-682.567.109-19.358-5.012,41.409-23.1L152.784,340.4l-23.453,6.073-19.377,5.017ZM652.195,362.65l-38-21.2-10.2-36.787,8.463,2.191,29.611,7.664L668.222,358.3l11.915,19.941Zm46.459-5.823,25.283-42.309,38.074-9.855-10.2,36.787-1.814,1.012h0l-42.743,23.843-21.393,11.934ZM1335.2,362.65l-38-21.2-10.2-36.787,38.074,9.855,31.216,52.242,6.858,11.477ZM17.5,353.736l23.437-39.221,38.074-9.855-9.7,34.983-.5,1.8L67,342.459h0L2.86,378.237Zm469.38-23.507,16.565-27.719,22.624,37.863-39.188,21.859Zm683,0,16.564-27.719,3.2,5.351,19.427,32.512-39.188,21.859ZM404.313,351.37l-19.718-11,22.626-37.861,16.562,27.717v32Zm683,0-19.718-11,22.626-37.861,16.562,27.717v32Zm-929.1-10.284h0l-1.283-.715,22.624-37.863,16.564,27.719v32Zm101-10.859,16.564-27.719,18.167,30.4,4.458,7.46-39.189,21.863Zm580.718,10.144,22.624-37.863,16.564,27.719v32.006Zm102.284-10.144,16.564-27.719,20.6,34.481,2.02,3.382-39.189,21.863Zm-485.834-27.3V301.5h45.251l-16.564,27.719-19.582,10.923-9.1,5.079Zm683,0V301.5h45.25l-16.564,27.719L1148.208,340.3l-8.826,4.923ZM204.355,332.8l-6.423-3.583L181.367,301.5h45.251v43.721Zm24.357-31.3h45.251L257.4,329.215l-6.423,3.583-22.264,12.418Zm224.269,42.994L425.6,329.215,409.034,301.5h45.252v43.722Zm447.813-4.2-19.861-11.079L864.369,301.5h45.25v43.721Zm10.92-38.8h45.251L940.4,329.215l-6.424,3.583-22.263,12.418Zm222.768,42.156L1108.6,329.215l-16.563-27.72h45.252v43.722ZM515.046,317.878l-10.392-17.392.6-1.011,2-3.342,5.376-9,47.175,26.317,7.263,4.052L535.6,335.056l-7.721,4.307Zm682.17-1.392-9.56-16,.6-1.011,2-3.342,5.377-9,45.788,25.542,8.651,4.826-11.342,6.327-27.846,15.533ZM115.929,317.5l54.437-30.367,5.317,8.9,2.056,3.442.6,1.012-9.56,16-13.668,22.876Zm683,0,54.438-30.368,5.317,8.9,2.056,3.442.6,1.012-10.391,17.392L838.116,339.36Zm-154-2.241-.489-.819-.558-.933,10.2-36.787,6.321,6.107,21.551,20.825v73.574Zm39.121-9.583v-2.024L711.92,276.72l3.161,11.4,7.042,25.389-38.078,63.72Zm643.88,9.583h0l-1.047-1.752,10.2-36.787,6.32,6.107,21.551,20.825v73.574ZM1.047,305.673v-2.024L27.89,277.714l1.032-1,3.194,11.517L39.125,313.5,14.3,355.042,1.047,377.223ZM74.03,330.441l7.4-26.688,3.132-3.026,28.221-27.267v43.454l-6.755,3.769L71.375,340.014Zm496.19-13.519-.007,0V273.46l31.356,30.3,10.057,36.263Zm186.809,13.522,7.4-26.688,3.133-3.027,28.224-27.269v43.456l-7.366,4.109-34.047,18.992Zm496.186-13.526V273.46l31.355,30.3,10.057,36.263Zm-693.747-5.994L513.68,285.382l5.286-8.847,2.692-4.506h46.46V315.75Zm43.582-8.6-3.133-3.027-28.223-27.269h44.979l23.909,40.01Zm146.275-30.3h44.981l-31.356,30.3-37.534,9.715Zm491.891,38.2-44.535-24.844,5.236-8.762,2.743-4.59h46.46V315.75Zm44.835-7.9-3.133-3.027L1254.7,272.029h44.979l23.909,40.01ZM45.227,307.336l20.5-34.3.1-.164.5-.846h44.981l-31.356,30.3-37.534,9.715Zm69.656-35.31H161.34l2.717,4.547,5.261,8.805L117,314.567l-2.114,1.177Zm683,0v0h46.46l2.648,4.431,5.331,8.922-52.337,29.2-2.1,1.171ZM312.976,297.261l14.044-13.57,13.431-12.977v46.2l-7.28,4.061L301.5,338.646Zm29.569,19.655v-46.2l16.1,15.55,11.381,11L379.3,330.7l2.2,7.945Zm653.432-19.655,14.044-13.57,13.431-12.977v46.2l-7.28,4.061L984.5,338.646Zm29.569,19.655v-46.2l16.1,15.55,11.381,11L1062.3,330.7l2.2,7.945ZM381.318,330.175l-9.272-33.438,5.773-20.816,4.284-15.445,23.908,40.01-22.49,37.634Zm683,0-9.272-33.438,5.912-21.317,4.146-14.944,23.909,40.01-22.491,37.634ZM282.355,309.468l-5.368-8.984.6-1.012,23.3-39,10.057,36.263L302.559,327l-3.083,11.118Zm682.481-.872-4.847-8.112.6-1.012,23.3-39,10.057,36.263L985.56,327l-3.084,11.118ZM242.246,287.828l19.3-18.649,37.532-9.717-23.909,40.01H230.194Zm683,0,19.3-18.649,37.532-9.717-23.909,40.01H913.2ZM383.915,259.462l37.534,9.717L452.8,299.472h-44.98Zm683,0,37.534,9.717,31.355,30.293h-44.98ZM456.38,299.472V255.754l11.809,6.588,42.63,23.781-5.331,8.922-2.648,4.431H456.38Zm683,0V255.754l10.747,6,43.692,24.374-5.331,8.922-2.648,4.431h-46.46Zm-961.916-4.506-5.286-8.846,35.778-19.958,18.661-10.41v43.72h-46.46Zm683,0-5.286-8.846L882.643,270.8l26.977-15.049v43.72h-46.46ZM619.092,272.029l-.6-1.011,5.644-9.445,16.844-28.189,11.478,41.381L642.4,311.028Zm683,0-.6-1.011,5.095-8.527,17.393-29.107,11.478,41.381L1325.4,311.027Zm-588.546,2.736,9.031-32.568,2.444-8.816,22.491,37.633L738.976,285.3,723.6,311.025Zm-683,0,9.031-32.567,2.445-8.816,22.49,37.633-7.839,13.119L40.606,311.022Zm653.5-19.008v-1.169L723,232.858l-2.445,8.816-9.031,32.568-13.882,13.413-13.6,13.135ZM661.054,280.6l-6.577-6.355L643,232.855l31.674,17.669,7.28,4.061v46.2Zm683,0-6.577-6.355L1326,232.855l31.674,17.669,7.28,4.061v46.2ZM1.047,255.751v-1.168L40,232.854l-2.444,8.816-9.031,32.568L14.786,287.512,1.047,300.786ZM468.174,260l-10.746-6,39.188-21.86,12.838,21.485,10.392,17.391-.605,1.012-2.056,3.442-5.317,8.9Zm681.835-.651-9.58-5.344,39.188-21.86,13.669,22.877,9.56,16-.6,1.012h0l-2.12,3.548-5.254,8.793ZM163.154,271.015l7.678-12.849,15.551-26.026L225.568,254l-54.436,30.366Zm683,0,7.546-12.63,15.682-26.245L908.57,254l-54.436,30.366ZM422.93,267.748l-7.9-28.476-2.159-7.787,15.6,8.7,25.812,14.4v43.456Zm683,0-7.9-28.476-2.159-7.787,13.265,7.4,28.148,15.7v43.456Zm-877.22-13.163,18.883-10.534,22.531-12.569-10.057,36.266-31.356,30.293Zm683,0L930.6,244.051l22.531-12.569L943.07,267.748l-31.356,30.293Zm-372.281-12.3,19.861-11.079,8.826-4.922v43.721H522.868Zm30.781-16L592.476,238.7l6.424,3.583,16.564,27.72H570.213Zm652.22,16,6.424-3.583,22.263-12.418v43.721h-45.251Zm30.782-16,8.825,4.922,19.861,11.079,3.71,6.21,12.854,21.51h-45.25Zm-486.117,16,25.883-14.437,2.806-1.565v43.721H750.535ZM114.882,268.572V226.284l18.633,10.395,10.051,5.607L160.128,270H114.882ZM84.1,242.283l27.384-15.273,1.3-.727V270H67.536Zm713.783,26.291V226.282l18.891,10.54,9.8,5.464L843.129,270H797.882ZM201.324,238.138l-12.61-7.036,11.39-2.949,31.44-8.139,16.216,4.2,21.319,5.518-41.414,23.1Zm212.593-8.408,21.432-5.548,16.1-4.168,29.532,7.644,13.3,3.443L456.77,252.031l-1.437.8-1.047-.585h0Zm457.8,1.372,11.391-2.949,31.44-8.139,16.216,4.2,21.318,5.518-.953.532-40.461,22.572Zm225.2-1.372,21.486-5.561,16.049-4.154,30.207,7.819,12.626,3.269-37.361,20.843-1.591.887-1.047-.585h0ZM726.1,231.13l31.943-17.818,7.245-4.041v32l-15.514,25.964-1.047,1.753ZM510.707,251.678,498.43,231.13l39.189-21.861v32.005l-16.565,27.719Zm90.006-10.4V209.269l39.19,21.861-4.458,7.46-18.168,30.4Zm595.31,14.277-14.593-24.421,39.189-21.861v32.005l-16.564,27.719Zm87.691-14.277V209.269l39.189,21.861-22.625,37.863ZM43.1,231.128l38.562-21.51.627-.35v32L66.771,267.236l-1.048,1.752ZM145.38,241.274V209.268l1.495.834,37.5,20.917.195.109-15.9,26.608-6.727,11.258Zm683,0V209.268l1.494.834,37.558,20.949.136.076-8.286,13.866-14.34,24ZM302.376,258l1.047-1.753,13.043-21.827,23.985-40.137v73.574l-27.872,26.929Zm694.412-19.1,26.664-44.621v73.574l-27.872,26.929L985.379,258l1.047-1.753h0ZM358.873,283.628l-16.328-15.775V194.278L380.623,258l-5.493,19.8-4.71,16.983Zm683,0-16.328-15.775V194.278L1063.624,258l-5.444,19.628-4.759,17.159ZM272.691,230.051l.605-.338,65.34-36.447-38.074,63.717-38.074,9.858Zm683,0,.606-.338,65.34-36.447-38.074,63.717-38.074,9.858Zm-611.335-36.79,65.8,36.707v0l.148.083,10.2,36.786-38.074-9.858-23.113-38.677-14.966-25.043h0Zm683,0,65.8,36.707v0l.148.083,10.2,36.786-38.074-9.858-21.828-36.526-16.251-27.194h0ZM539.713,208.1l28.406-15.848v31.692l-8.423,4.7-19.983,11.147Zm30.5,15.845V192.255L598.619,208.1v31.69Zm652.5-15.845,28.406-15.848v31.692l-28.406,15.845Zm38.924,20.543-8.423-4.7V192.255l28.406,15.848v31.69ZM133.22,234.177l-18.338-10.23V192.254l1.759.982,25.6,14.28h0l1.047.584v31.693Zm656.627-38.609,5.94-3.314v31.694l-1.438.8-26.972,15.044V208.1l1.048-.584h0ZM84.38,208.1l1.047-.584,10.459-5.835,16.9-9.428v31.694L84.38,239.79Zm732.08,26.21-18.578-10.365V192.252l27.359,15.264h0l1.047.584v31.693Zm-214.7-26.791,18.008-10.046,10.679-5.958h33.125L641.69,228.142h0l-.74,1.237Zm41,22.871L656.8,206.9l9.195-15.389h15.957v60.735Zm41.28-38.876h15.961l23.228,38.876-39.189,21.859Zm18.379,0H735.55l11.579,6.46,17.108,9.544-7.245,4.042-30.66,17.1-1.283.716Zm582.34,16,18.425-10.279,10.262-5.725h33.125L1326.451,225.2l-1.759,2.945h0l-.74,1.237Zm41,22.871,13.56-22.695L1349,191.514h15.957v60.735ZM1.047,191.511H17.007l23.229,38.876L1.047,252.246Zm18.378,0H52.551L64.188,198l17.05,9.512-.627.35L43.332,228.66h0l-1.283.715Zm166.19,37.863-39.188-21.859,10.013-5.586,18.676-10.419h33.126l-10.172,17.024-12.453,20.841Zm25.045-37.863h47.818L231,218.06,203.043,225.3l-14.87,3.849Zm39.48,31.222-16.574-4.29,27.875-26.932H337.59l-64.132,35.776-1.814,1.012Zm95.268-31.222h76.148l27.872,26.932-36.68,9.494-1.394.361Zm131.4,32.973-24.814-6.424-11.382-11L424.52,191.511h47.818l22.489,37.636Zm-2.053-32.973h33.126l18.865,10.525,9.822,5.48-39.188,21.86Zm393.862,37.863-39.188-21.859,9.68-5.4,19.009-10.6h33.125l-10.014,16.76-12.611,21.1Zm25.046-37.863h47.818L914,218.06,886.045,225.3l-14.87,3.849Zm39.479,31.222-16.574-4.29,27.874-26.932h76.148l-64.132,35.776-1.814,1.012Zm95.268-31.222h76.148l27.872,26.932-35.881,9.288-2.193.568Zm131.606,33.026L1135,218.06l-11.381-11-16.094-15.551h47.818l22.488,37.636Zm-2.259-33.026h33.125l18.48,10.31,10.207,5.695-39.188,21.86Zm-586.5-1.009,27.358-15.261,1.048-.584L628.075,190.5l-10.036,5.6-18.37,10.248Zm177.995,6.321L737.925,190.5l6.4-3.567,22.01-12.277L775.914,180l18.822,10.5L766.331,206.35Zm505.007-6.321,27.358-15.261,1.047-.584,27.777,15.492.632.353L1287.6,203.6l-4.932,2.751ZM529.154,201.043l-18.9-10.543,7.685-4.287,20.72-11.558,1.051.586L567.067,190.5l-28.4,15.847Zm682.588-.231L1193.258,190.5l6.4-3.567,22.009-12.277,1.051.586,27.355,15.259-28.4,15.847ZM66.324,196.859l-11.4-6.359,7.685-4.287,20.721-11.558L111.738,190.5,83.332,206.347Zm49.6-6.359,12.722-7.1,15.684-8.749L172.741,190.5l-18.694,10.429-9.714,5.419Zm683,0,21.674-12.09,6.732-3.755,27.776,15.492.632.353L836.69,201.129l-9.355,5.219Zm-559.04-21.834-6.321-6.107,38.077-9.857,65.946,36.787H261.441ZM411.355,152.7l19.416,5.027,18.658,4.831-14.08,13.6-13.792,13.325H345.409ZM922.89,168.666l-6.321-6.107,38.077-9.857,65.946,36.787H944.443ZM1094.357,152.7l12.573,3.255,25.5,6.6-14.242,13.761-13.629,13.168h-76.148Zm-906.184-.85,18.243,4.724L231,162.942l6.578,6.355,20.9,20.191H210.661Zm249.94,24.5,13.881-13.412,19.061-4.935,23.771-6.155-22.489,37.636H424.52Zm434.531-22.042-1.47-2.461,18.243,4.724L914,162.942l6.578,6.355,20.9,20.191H893.663Zm248.308,22.2L1135,162.942l19.376-5.017,23.455-6.073-22.488,37.636h-47.818Zm-395.9-24.884,1.283.715,10.86,6.058,27.048,15.087-21.805,12.164-6.883,3.839H702.425ZM601.761,173.489l39.189-21.863.74,1.237h0l21.886,36.629H630.451Zm683,0,39.188-21.863.74,1.237h0l1.759,2.945,20.127,33.684h-33.125ZM497.38,151.625l39.187,21.861-28.685,16H474.756Zm683,0,39.188,21.861-28.685,16h-33.126Zm-1138.331,0,1.283.715h0l19.3,10.765L81.24,173.485l-28.689,16H19.425Zm104.378,21.861,39.19-21.863,22.625,37.865H175.117Zm683,0,39.19-21.863,22.625,37.865H858.119ZM539.713,172.9V141.212L559.7,152.358l8.423,4.7v31.691Zm30.5-14.678v-1.168l28.406-15.845V172.9l-.124.07L570.213,188.75ZM767.378,172.9V141.212l26.972,15.043,1.438.8v31.694Zm455.336,0V141.212l28.406,15.845v31.691Zm30.5-14.678v-1.168l8.423-4.7,19.983-11.146V172.9l-.136.076-28.27,15.77ZM84.38,172.9V141.209l28.406,15.844v31.694h0Zm30.5-14.679v-1.17l28.4-15.844V172.9l-.124.07-28.279,15.774Zm683,0v-1.171l8.423-4.7,19.983-11.147V172.9l-.136.076-28.27,15.769Zm-155.116-7.61,39.186-21.859V189.49H665.995Zm683,0,39.186-21.859V189.49H1349ZM684.045,128.756l39.189,21.859L700.006,189.49H684.045Zm-683,0,39.189,21.859L17.007,189.488H1.047Zm454.282-.583L494.28,149.9l-23.767,6.154-19.061,4.935L433.2,156.261l-19.277-4.991,40.365-22.519h0Zm683,0,38.95,21.728-23.451,6.072-19.377,5.017-18.174-4.705-19.357-5.012,40.365-22.519h0ZM206.959,154.621,188.715,149.9l29.651-16.54,9.3-5.187,1.047.584,40.366,22.516-37.535,9.717Zm683,0L871.717,149.9l29.651-16.54,9.3-5.187,1.047.584,40.366,22.516-37.534,9.717ZM323.1,179.067l-50.406-28.118-10.2-36.787,8.463,2.19,29.611,7.665,26.159,43.778,11.916,19.941Zm34.056-12.742,25.282-42.309,38.074-9.855-10.2,36.787-1.813,1.011h0l-64.136,35.777ZM1006.1,179.067l-50.406-28.118-10.2-36.787,38.074,9.855,31.217,52.242,6.857,11.477Zm35.9-15.83,23.437-39.221,38.074-9.855-10.2,36.787-1.813,1.011h0l-64.136,35.777Zm-295.936-2.223L726.1,149.874l22.627-37.861,15.454,25.863,1.107,1.853v32ZM499.71,150.587l-1.279-.714,22.624-37.862,16.565,27.719v32Zm101-10.857,16.564-27.719,18.168,30.4,4.458,7.46-39.19,21.862Zm582,10.857-1.279-.714,22.624-37.862,16.564,27.719v32Zm101-10.857,16.564-27.719,7.542,12.621,15.083,25.242-39.189,21.862ZM62.816,160.871l-19.719-11,22.626-37.861,16.562,27.717v32Zm82.565-21.144,16.564-27.719,22.624,37.863L145.38,171.731Zm683,0,16.565-27.719,22.624,37.863-39.188,21.859ZM559.293,149.8l-19.861-11.079L522.868,111h45.251V154.72Zm10.92-38.8h45.251L598.9,138.718l-6.424,3.583L570.213,154.72Zm222.768,42.156L767.1,138.718,750.535,111h45.252V154.72ZM1228.858,142.3l-6.424-3.583L1205.869,111h45.251V154.72Zm24.357-31.3h45.25L1281.9,138.718,1262.04,149.8l-8.825,4.923ZM111.483,153.99,84.1,138.716,67.536,111h45.25v43.719Zm3.4-41.562V111h45.248l-16.564,27.719-19.583,10.924-9.1,5.076Zm683,0V111h1.481l0,0h43.772l-16.564,27.719-19.861,11.079-8.825,4.923ZM457.43,127l54.436-30.367,5.377,9,2,3.342.605,1.012-10.392,17.391-12.836,21.484Zm683,0,54.436-30.367,5.286,8.846,2.088,3.494h0l.6,1.012-9.56,16-13.668,22.875Zm-967.719-1.018-9.56-16,.6-1.012,2.12-3.548,5.254-8.793,44.859,25.024,9.58,5.344L194.1,144.554l-7.721,4.307Zm683.833,1.392-10.391-17.391.6-1.012,2.056-3.442,5.317-8.9,44.858,25.024,9.58,5.344-31.467,17.554-7.721,4.307Zm-553.123-2.619h0l-.49-.82-.558-.933,10.2-36.787,6.321,6.108,21.551,20.825v73.573Zm39.122-9.584v-2.024L370.42,86.217l3.194,11.517L380.623,123l-30.985,51.852-7.092,11.868Zm643.88,9.583h0L985.379,123l10.2-36.787,6.321,6.108,21.551,20.825v73.573Zm39.122-9.583v-2.024l27.874-26.932,3.058,11.023L1063.624,123,1038.8,164.542l-13.254,22.181ZM228.712,126.416V82.958l31.356,30.3,10.057,36.263Zm186.816,13.526,7.4-26.688,31.356-30.3v43.455l-6.714,3.746-34.7,19.356Zm496.185-13.526V82.958l31.356,30.3,10.057,36.263Zm186.816,13.526,7.4-26.688,3.132-3.027,28.223-27.269v43.455l-6.758,3.77-34.655,19.331Zm-642.149-14.7V81.53h46.46l2.693,4.506,5.286,8.847L458.37,124.141l-1.989,1.108Zm683,0V81.53h46.46l2.693,4.506,5.286,8.847-52.177,29.107-2.261,1.26Zm-923.51-5.992L172.179,94.879l5.331-8.922,2.648-4.431h46.46v43.721Zm45.677-7.431-3.132-3.027L230.194,81.527h44.979l23.909,40.011Zm125.176,5.014,20.5-34.3.1-.165.5-.845H452.8l-2.882,2.784-28.474,27.512-37.534,9.715Zm512.148,2.416L855.181,94.879l5.331-8.922,2.648-4.431h46.46v43.721Zm45.678-7.431-3.132-3.027L913.2,81.527h44.979l23.909,40.011Zm125.176,5.014,20.5-34.3.083-.138.521-.872h44.98l-31.356,30.3-37.534,9.715ZM654.477,106.764l13.881-13.412,13.593-13.134v46.2l-7.28,4.061L643,148.149Zm29.568,19.656v-46.2l16.1,15.55,11.381,11,9.031,32.568L723,148.147Zm653.433-19.656,13.881-13.412,13.593-13.134v46.2l-7.28,4.061L1326,148.149ZM1.047,126.416v-46.2l16.1,15.551,11.382,11L37.8,140.2l2.2,7.945Zm721.53,12.391-9.031-32.567,5.774-20.816L723.6,69.979l23.909,40.01-22.491,37.633Zm-682.757.868-9.272-33.438,5.773-20.816,4.284-15.445,23.909,40.01L42.024,147.621Zm584.036-20.7-5.369-8.984.6-1.012,23.3-39,10.057,36.263-8.262,29.789-3.216,11.591Zm682.481-.872-4.847-8.112.6-1.012,23.3-39,10.057,36.263-8.263,29.789-3.215,11.591ZM583.747,97.331l19.3-18.649,37.531-9.717-23.908,40.01H571.694Zm684.185-1.143,18.12-17.506,37.531-9.717-23.908,40.01H1254.7Zm-519.041,12.06-.168-.282-6.83-11.43L725.416,68.965l37.534,9.718,31.355,30.293h-44.98ZM42.417,68.962,79.952,78.68l31.356,30.293H66.327Zm476.594,35.582-5.331-8.922L541.142,80.3l26.977-15.049v43.72h-46.46Zm682.932-.116-5.262-8.806,35.265-19.671,19.174-10.7v43.72h-46.46ZM114.882,65.254l9.9,5.523L169.318,95.62l-5.236,8.762-2.742,4.59H114.882Zm683,0,8.651,4.826L852.32,95.62l-5.286,8.847-2.692,4.506h-46.46ZM277.591,81.527l-.6-1.012,5.643-9.445,16.845-28.189,11.478,41.381L300.9,120.525Zm683,0-.6-1.012,5.095-8.526,17.393-29.107,11.478,41.381L983.9,120.525ZM372.046,84.263l9.031-32.568,2.445-8.816,22.49,37.633-7.84,13.119L382.1,120.523Zm683,0,9.031-32.568,2.445-8.816,22.491,37.633-7.84,13.119L1065.1,120.523Zm-712.5-19.011V64.083L381.5,42.356l-2.444,8.815-9.031,32.568L356.14,97.152l-13.595,13.135Zm683,0V64.083L1064.5,42.356l-2.444,8.815-9.031,32.568-13.883,13.413-13.594,13.135ZM319.553,90.094l-6.577-6.355L301.5,42.353l31.674,17.669,7.28,4.061v46.2Zm683,0-6.577-6.355L984.5,42.353l31.674,17.669,7.28,4.061v46.2Zm-497.9-9.576L512.2,67.888l15.682-26.246,12.162,6.785L567.069,63.5,512.633,93.87Zm683,0,7.678-12.848,15.551-26.026,13.546,7.557,25.64,14.3L1195.634,93.87ZM806.192,67.551,798.934,63.5l39.184-21.861,12.836,21.483,10.391,17.391-.6,1.012-2,3.342-5.377,9Zm-681.614.774L115.931,63.5,155.116,41.64l13.668,22.876,9.56,16-.6,1.012-2,3.342-5.377,9Zm639.853,8.926-7.756-27.966-2.3-8.3,13.265,7.4,28.148,15.7v43.456Zm-683,0-7.9-28.477-2.16-7.786,13.266,7.4,28.145,15.7v43.454Zm488.781-13.16,15.953-8.9,25.46-14.2L601.569,77.251l-31.356,30.293Zm683,0,17.454-9.738,23.958-13.365L1284.57,77.251l-31.355,30.293ZM456.38,78.072V35.785l18.27,10.193,10.417,5.811,16.561,27.717h-43.77l0,0H456.38Zm683,0V35.785l18.47,10.3,10.216,5.7,16.561,27.717h-43.769l0,0h-1.481ZM197.932,51.784l6.423-3.583,22.263-12.419V79.5H181.367Zm30.781-16L250.976,48.2l6.423,3.583L273.963,79.5H228.712Zm652.221,16,19.861-11.079,8.826-4.923V79.5h-45.25Zm30.781-16L933.977,48.2l6.424,3.583L956.965,79.5H911.714Zm-486.117,16L452.981,36.51l1.306-.728V79.5H409.034Zm683,0,25.883-14.437,2.806-1.565V79.5h-45.252ZM530.214,40.606,541.6,37.657l31.44-8.139,16.215,4.2,21.319,5.518-4.486,2.5-36.928,20.6Zm225.2-1.373,37.535-9.716,29.532,7.645,13.3,3.442L796.834,62.331l-1.047-.585v.006Zm467.139,6.584-9.341-5.211.392-.1,42.438-10.986,16.216,4.2,21.319,5.518-41.414,23.1ZM72.419,39.231,93.9,33.669l16.05-4.154,30.207,7.819L152.784,40.6,113.832,62.331l-1.047-.585v0ZM486.881,50.777V18.771l37.847,21.111,1.341.748L517.784,54.5l-14.34,24Zm683,0V18.771l37.888,21.134,1.3.725-8.507,14.238L1186.446,78.5Zm-317.675,10.4L839.932,40.63l39.187-21.86v32L862.555,78.491ZM171.521,65.049,157.67,41.867l-.739-1.238,39.187-21.86v32L179.553,78.491ZM384.6,40.628l38.561-21.51.627-.349v32L408.269,76.737l-1.048,1.752Zm683,0,38.561-21.51.627-.349v32l-1.152,1.928L1090.6,77.851l-.381.638ZM259.213,50.772v-32L298.4,40.629l-4.458,7.46-18.167,30.4Zm683,0v-32L981.4,40.629,958.779,78.491ZM681.951,3.782V77.356L654.08,104.285,643.877,67.5l1.048-1.753h0Zm683,0V77.356l-27.871,26.929-10.2-36.786,1.047-1.753h0ZM700.374,93.131,684.045,77.356V3.782L722.123,67.5,716.63,87.3l-4.71,16.983Zm-683,0L1.047,77.353V3.779L39.125,67.5,33.632,87.3l-4.71,16.983ZM614.191,39.555l.606-.338L680.137,2.77,642.063,66.486l-38.074,9.858Zm683,0,.606-.338,65.34-36.447-38.074,63.717-38.074,9.858ZM685.858,2.765l65.8,36.707v0l.148.083,10.2,36.787-38.074-9.858L700.823,27.809,685.858,2.766h0Zm-683,0,65.8,36.707v0l.148.082,10.2,36.786L40.938,66.484,19.11,29.957,2.859,2.763h0ZM474.38,43.49l-18-10.042V1.756l27.359,15.263h0l1.048.584V49.3Zm683.188.1-18.186-10.146V1.756l4.3,2.4,23.055,12.863,1.048.584V49.3ZM881.214,17.6l.138-.077.906-.505L909.619,1.754V33.445l-8.423,4.7L881.214,49.29Zm-683,0,.023-.013,1.025-.571,25.6-14.28,1.762-.983V33.446L198.212,49.29Zm30.5,15.845V1.753L257.119,17.6V49.29Zm683,0V1.753L940.12,17.6V49.29ZM425.877,17.6l1.047-.584h0L454.286,1.751V33.446L425.877,49.291Zm683,0,1.047-.584h0l10.084-5.626,17.277-9.639V33.446l-1.437.8-26.971,15.043Zm-620.95-.582,9.41-5.249,19.28-10.755h33.126l-10.014,16.76-12.611,21.1h0Zm64.234-16H599.98L572.5,27.563,544.544,34.8,529.674,38.65Zm39.479,31.221-16.574-4.289L602.942,1.015H679.09L614.958,36.79,613.144,37.8ZM686.91,1.015h76.149L790.93,27.947,754.25,37.441l-1.394.361Zm131.4,32.972-24.815-6.423-11.381-11L766.021,1.015h47.817L836.326,38.65ZM816.257,1.015h33.125l23.965,13.369,4.72,2.633L838.88,38.877Zm354.673,16L1179.924,12l19.7-10.987h33.126L1210.12,38.879h0Zm64.234-16h47.817L1255.5,27.563,1227.546,34.8l-14.871,3.849Zm39.479,31.221-16.574-4.289,27.875-26.932h76.148L1297.96,36.79l-1.814,1.012ZM3.911,1.012H80.059l27.872,26.932L72.051,37.231l-2.193.568ZM135.517,34.038,110.5,27.56l-11.381-11L83.021,1.012H130.84l22.488,37.636ZM133.258,1.012h33.126l18.48,10.31,10.205,5.694-39.187,21.86ZM270.569,22.765l-10.306-5.749L278.031,7.1l10.918-6.091h33.126L300.189,37.641v0l-.739,1.237Zm30.7,17.122L315.3,16.4l9.2-15.389h15.957V61.746Zm41.28-38.875H358.5l23.229,38.875L342.545,61.746Zm18.378,0h33.126L405.686,7.5l17.05,9.512-.626.35L384.83,38.16l-1.283.716Zm589.329,19.9-6.988-3.9,17.5-9.765,11.183-6.239h33.126L983.19,37.641v0l-.739,1.237Zm34.015,18.972,13.56-22.694L1007.5,1.012h15.957V61.746Zm41.28-38.875h15.96l23.228,38.875-39.188,21.859Zm18.378,0h33.126l11.71,6.533,16.976,9.471-.627.35L1067.831,38.16l-1.283.716ZM1197.239,0l.005,0-19.8,11.046-8.608,4.8L1140.429,0l.005,0h-4.2l-28.406,15.848-16.923-9.442L1079.425,0H969.575l-10.74,5.992-17.666,9.856L912.761,0h-4.2l0,0L880.163,15.85,875.232,13.1,851.758,0l0,0H514.237l.005,0L494.895,10.8l-9.061,5.055L457.428,0l0,0h-4.2l-28.4,15.847h0L407.823,6.359,396.424,0H286.575L276.2,5.79,258.168,15.848,229.76,0h-4.189L197.165,15.848l-9.923-5.535L168.759,0H0V2.024H0V125.832H0v257.19H0v0H0V506.831H0V762H168.764l-.005,0,6.4-3.567,22.01-12.278L218,757.776,225.571,762l0,0h4.2l-.005,0,5.556-3.1,22.85-12.746L286.574,762l0,0H396.429l0,0,7.685-4.286,20.721-11.559,11.362,6.338L453.236,762l0,0h4.2l1.183-.66,27.223-15.185L514.242,762H851.758l10.874-6.065,17.532-9.779L908.569,762h4.2l-.005,0,5.555-3.1,22.851-12.746L969.575,762l0,0h109.86l-.005,0,6.4-3.567,22.011-12.278,11.363,6.338L1136.238,762l0,0h4.2l28.406-15.845L1197.244,762H1366V0Z" transform="translate(1366 762) rotate(180)" fill="#7e5462" opacity="0.384"/>
</svg>
