<svg xmlns="http://www.w3.org/2000/svg" width="1366" height="802" viewBox="0 0 1366 802">
  <path id="Path_37" data-name="Path 37" d="M583.042,780.7l-7.975-8.109,15.21-4.144,22.866-6.231,1.814,1.065,64.132,37.653H602.942Zm122.628,9.219,47.185-27.7L771.1,767.19l19.825,5.4-1.178,1.2-26.693,27.144H686.91Zm560.373-9.219-7.975-8.109,15.211-4.144,22.866-6.231,1.814,1.065,25.378,14.9,38.754,22.753h-76.148ZM22.672,789.918l47.185-27.7,18.112,4.935,19.962,5.44L80.059,800.933H3.911ZM544,786.554l-14.323-25.23L572.5,773l27.477,27.94H552.162ZM793.495,773l42.831-11.672-22.488,39.612H766.021ZM1227,786.554l-14.323-25.23L1255.5,773l27.477,27.94h-47.817ZM110.5,772.993l42.831-11.672L130.84,800.933H83.022Zm728.384-11.909,39.19,23.008-28.689,16.843H816.257ZM487.928,784.093l39.191-23.01,14.343,25.264,8.282,14.588H516.617Zm683,0,39.191-23.01,14.343,25.264,8.282,14.588h-33.126ZM155.882,761.081l39.188,23.009-28.686,16.842H133.258Zm227.1.99.562-.99,21.911,12.864,17.279,10.144-28.689,16.844H360.923Zm683.069-.12.495-.871,21.911,12.864,17.279,10.144-28.688,16.844h-33.126ZM260.26,784.091l39.19-23.01.739,1.3h0l12.678,22.332,9.208,16.219H288.949Zm683,0,39.19-23.01.738,1.3h0L995.52,784.1l9.557,16.835H971.951ZM456.38,768.026V766.8l8.671-5.09,19.736-11.586v33.356l-.206.12-26.949,15.821-1.252.735Zm683,0V766.8l9.109-5.347,19.3-11.329v33.356l-.175.1-28.231,16.574Zm-941.17,15.45V750.12L226.618,766.8v33.356h0Zm30.5,16.677V766.8l10-5.87,18.408-10.807v33.356l-28.406,16.677Zm214.013-6.786-16.847-9.891V750.12L454.286,766.8v33.358Zm438.489-9.891V750.12L909.619,766.8v33.356h0Zm30.5,16.677V766.8l10-5.87L940.12,750.12v33.356l-28.406,16.677Zm208.546-10-11.38-6.681V750.12l28.409,16.677v33.358ZM315.4,784.921l-14.139-24.9,4.99-2.931,34.2-20.076v63.923H324.494Zm27.141-47.911,20.332,11.936,18.856,11.07h0L358.5,800.933H342.545Zm655.227,46.8-13.5-23.789,4.991-2.93,34.2-20.076v63.923H1007.5Zm27.775-46.8,20.332,11.936,18.856,11.07h0l-23.228,40.916h-15.96ZM530.216,759.266l38.95-22.868L596.2,752.272l14.376,8.439-14.238,3.88-23.3,6.348Zm683,0,38.949-22.868,28.141,16.521,13.272,7.792-14.238,3.88-23.3,6.348Zm-440.033,6.286-17.764-4.841,41.018-24.084.393-.231,38.952,22.87-42.831,11.672Zm-683.152-.045-17.61-4.8,41.409-24.314,38.951,22.87-42.829,11.672Zm544.533,6.828-18.56-10.9-1.815-1.065-10.2-38.718,9.781,2.665,28.292,7.708,38.075,67.063Zm89.371-40.308,38.074-10.372-10.2,38.718-1.814,1.065h0L694.875,793.8l-9.016,5.294Zm575.07,29.41-1.814-1.065-10.2-38.718,10.057,2.74,28.017,7.633,24.265,42.74,13.809,24.324ZM3.036,798.781l37.9-66.757,38.074-10.372-10.2,38.719L67,761.435,11.876,793.8,2.859,799.09Zm483.845-50.217,16.565-29.175,22.624,39.851-39.188,23.007Zm683,0,16.564-29.175,12.524,22.06,10.1,17.79-39.188,23.007Zm-765.318,22.4L384.6,759.237l11.076-19.508,11.549-20.341,16.562,29.171v33.683Zm683,0L1067.6,759.237l11.536-20.316,11.09-19.532,16.562,29.171v33.683ZM158.212,759.99l-1.283-.753,22.624-39.851,16.564,29.174v33.683Zm101-11.43,16.564-29.174L298.4,759.236l-17.709,10.4-21.48,12.612Zm580.718,10.677,22.624-39.851,16.564,29.174v33.687ZM942.215,748.56l16.564-29.174L981.4,759.236l-17.709,10.4-21.48,12.612ZM456.38,719.827v-1.5h45.251L485.067,747.5,456.38,764.34Zm683,0v-1.5h45.25L1168.069,747.5l-28.687,16.842ZM197.932,747.5,181.367,718.32h45.251v46.017Zm30.781-29.175h45.251L257.4,747.5l-3.618,2.124-25.069,14.718ZM425.6,747.5,409.033,718.32h45.253v46.017Zm458.955,2.124-3.619-2.124L864.369,718.32h45.25v46.017Zm27.162-31.3h45.251L940.4,747.5l-3.618,2.124-25.069,14.718ZM1108.6,747.5l-16.563-29.175h45.253v46.017Zm-592.626-10.3-11.318-19.935.6-1.065,7.374-12.988,10.224,6,44.215,25.961-39.187,23.008Zm671.684-19.935.6-1.065,7.374-12.988,9.741,5.719,44.7,26.243-25.7,15.086-13.492,7.921ZM115.929,735.164,170.366,703.2l7.374,12.989.6,1.065-23.228,40.917Zm683,0L853.367,703.2l7.374,12.989.6,1.065-23.228,40.917Zm-154-2.359-.441-.776-.606-1.068,10.2-38.718,6.743,6.857,21.129,21.488v77.436Zm39.121-10.087v-2.13l27.875-28.346,3.195,12.121,7.009,26.6-38.078,67.065Zm659.907,38.315-16.026-28.229-.5-.876-.549-.969,10.2-38.718,6.742,6.857,21.129,21.488v77.436ZM1.047,722.717v-2.129l27.875-28.346,6.377,24.2,3.826,14.52L1.047,798.023Zm74.387,20.739,6-22.758,31.353-31.883v45.735l-3.332,1.957L71.375,758.861Zm520.828,6.391-26.05-15.294V688.814l29.708,30.21,1.647,1.676,10.057,38.166Zm162.3-6.876,5.869-22.271,26.174-26.617,5.182-5.269V734.55l-3.995,2.346-37.419,21.969Zm521.69,7.456-27.037-15.874V688.814l29.707,30.21,1.648,1.676,10.057,38.166Zm-756.83-43.346-9.742-5.72,7.978-14.053h46.46v46.016Zm80.354,12.31-.726-.2-28.5-28.984-2.853-2.9h44.979l23.908,42.111Zm132.6-9.279,12.948-22.8h44.98l-2.852,2.9-28.5,28.984-.83.226-36.7,10Zm469.514-3.344-9.21-5.408,7.979-14.053h46.46v46.016Zm80.16,12.424L1254.7,687.308h44.979l23.909,42.111ZM66.327,687.3h44.981L79.951,719.191,42.417,729.416Zm48.556,0H161.34l7.979,14.054-2.411,1.415L116.965,732.1l-2.083,1.221Zm683,0v0h46.46l7.978,14.054-3.968,2.33L800.21,731.954l-2.328,1.365ZM305.824,741l7.152-27.137,27.475-27.94V734.55L301.5,757.421Zm56.042,4.893L342.545,734.55V685.924l9.338,9.495,18.141,18.445,8.8,33.414,2.672,10.142ZM988.825,741l7.152-27.137,27.475-27.94V734.55L984.5,757.421Zm56.043,4.893-19.321-11.343V685.924l9.337,9.495,18.14,18.445,8.8,33.414,2.672,10.142Zm-668.9-17.689-3.923-14.893,2.566-9.738,7.491-28.426,23.908,42.111-11,19.372-11.491,20.237Zm683,0-3.923-14.893,2.394-9.083,7.664-29.08,23.909,42.111-10.694,18.835-11.8,20.774ZM276.987,717.256l.6-1.065,23.3-41.045,10.057,38.166-5.12,19.427-6.358,24.126Zm683,0,.6-1.065,23.3-41.045,10.057,38.166-5.12,19.427-6.358,24.126ZM236.968,709.3l24.581-25,37.532-10.227-23.909,42.11H230.194Zm683,0,24.582-25,37.533-10.227-23.909,42.11H913.2ZM383.916,674.08l37.534,10.228,26.369,26.813,4.986,5.07h-44.98Zm683,0,37.534,10.228,24.582,25,6.774,6.888h-44.98ZM456.38,716.191V670.177l45.23,26.556,9.209,5.407-7.978,14.054H456.38Zm683,0V670.177l44.7,26.243,9.742,5.719-7.979,14.054h-46.46Zm-967.2-14.053.239-.14,54.2-31.821v46.014h-46.46Zm683,0,1.247-.733,53.191-31.229v46.014h-46.46Zm-236.089-14.83-.6-1.065L628.9,667.909l12.079-21.275,11.478,43.552L642.4,728.353Zm683,0-.6-1.065,10.491-18.478,12-21.13,11.478,43.552L1325.4,728.353Zm-582.5,25.824-6.047-22.946,9.272-35.193,2.2-8.362,11.8,20.775,10.694,18.835L723.6,728.351Zm-682.832.628-6.213-23.576,9.272-35.193,2.2-8.362,11.491,20.237,11,19.371L40.606,728.347Zm647.284-43.582v-1.229L703.367,657.6,723,646.079l-2.672,10.141-8.8,33.414-27.478,27.942Zm-23.426,25.705-6.142-6.247L647.325,662.5,643,646.077l1.808,1.062,37.147,21.81v48.629Zm683,0-6.142-6.247-7.152-27.137L1326,646.077l4.838,2.841,34.116,20.03v48.629ZM1.047,670.174v-1.229l9.766-5.733L40,646.076l-2.672,10.142-8.8,33.414L2.709,715.885l-1.662,1.69Zm501.077,24.4-44.7-26.243.342-.2,38.846-22.807,23.229,40.917-.605,1.065L511.867,700.3Zm682.52-.283-44.215-25.96.161-.095,39.026-22.913,23.229,40.917-.6,1.065h0l-7.374,12.988ZM163.154,686.24l23.229-40.916,39.186,23.009-27.218,15.98-27.218,15.98Zm683,0,23.228-40.916,39.186,23.009-27.218,15.98-27.218,15.98Zm-418.883.977L422.93,682.8l-10.057-38.167,20.852,12.243,20.561,12.071v45.736Zm682.6-.409-3.939-4.006-10.057-38.167,21.134,12.408,20.279,11.906v45.736ZM228.712,668.948l41.413-24.316L260.068,682.8,238.346,704.89l-9.633,9.8Zm683,0,41.413-24.316L943.07,682.8,921.348,704.89l-9.634,9.8ZM539.045,656.685l.387-.682h0l28.687-16.842v46.017H522.868Zm31.168-17.524L598.9,656h0l.358.631,16.206,28.544H570.213Zm192.522,24.527L767.1,656l28.69-16.842v46.017H750.535Zm459.7-7.685,28.687-16.842v46.017h-45.251Zm30.782-16.842L1281.9,656l16.564,29.175h-45.25ZM114.882,683.668V639.161l9.078,5.331L143.567,656l16.561,29.171H114.882ZM84.1,656l24.973-14.659,3.714-2.18v46.014H67.536Zm713.783,27.672V639.159l8.849,5.2L826.568,656l16.561,29.171H797.882ZM188.713,644.233,212.5,637.75l19.04-5.188,37.534,10.225L227.664,667.1Zm236.152,4.983-10.948-6.428,37.534-10.225,19.3,5.258,23.533,6.412L455.333,667.1Zm446.849-4.983,23.791-6.483,19.04-5.188,37.534,10.225L910.665,667.1Zm237.552,5.8-12.347-7.249,37.534-10.225,19.13,5.212,23.7,6.458L1138.335,667.1ZM737.631,664.578,726.1,644.261l38.561-22.639.627-.368v33.683l-15.514,27.327-1.047,1.845Zm-239.2-20.316,39.189-23.008v33.685l-16.565,29.174Zm102.284,10.677V621.254l30.312,17.8,8.878,5.213-22.625,39.85Zm580.717-10.677,39.189-23.008v33.685l-16.564,29.174Zm102.284,10.677V621.254l30.312,17.8,8.877,5.213-22.625,39.85ZM54.174,663.766,43.1,644.259,81.659,621.62l.627-.368v33.683L66.771,682.262l-1.048,1.845Zm91.206-8.828V621.252l39.188,23.007-7.758,13.666-14.867,26.187Zm683,0V621.252l39.188,23.007-22.625,39.853Zm-526.005,17.6,38.074-67.061v77.436l-27.872,28.343Zm683,0,38.074-67.061v77.436l-27.872,28.343Zm-633.76,19.6-9.073-9.226V605.475l38.078,67.063-3.429,13.012-6.774,25.7Zm683,0-9.073-9.226V605.475l38.077,67.063-7.146,27.115-3.058,11.6ZM272.691,643.126l65.945-38.716-38.074,67.061-38.074,10.375Zm683,0,65.945-38.716-38.074,67.061L945.49,681.846Zm71.667-38.72,61.759,36.26,4.043,2.374v0l.148.087,10.2,38.718-38.074-10.375-23.668-41.685-14.411-25.38h0Zm-683,0,61.76,36.26,4.043,2.374v0l.148.087,10.2,38.718-38.074-10.375-28.807-50.735-9.272-16.329h0Zm195.356,15.62,28.406-16.68V636.7l-10.3,6.046-18.107,10.631Zm30.5,16.676V603.346l28.406,16.68v33.354Zm652.5-16.676,28.406-16.68V636.7l-10,5.87-18.408,10.807Zm30.5,16.676V603.346l28.406,16.68v33.354ZM123.582,641.809l-8.7-5.108V603.345l15.7,9.217,12.706,7.461v33.356Zm643.8-21.783,28.409-16.681V636.7l-28.409,16.677Zm-683,0,12.353-7.253,16.053-9.426V636.7L84.38,653.376ZM806.33,641.66l-8.449-4.962V603.343l21.3,12.51,7.1,4.17v33.357ZM601.764,619.41l28.687-16.845h33.125L641.69,641.117h0l-.739,1.3Zm41,24.071L656.8,618.762l9.195-16.2h15.957v63.923Zm41.28-40.916h15.961l23.228,40.916h0l-18.856,11.07-20.332,11.937Zm40.508,38.98-22.129-38.98H735.55l28.686,16.845-.627.368-38.561,22.639Zm560.212-22.136,28.687-16.845h33.125l-21.886,38.552h0l-.739,1.3Zm41,24.071,13.56-23.886,9.668-17.03h15.957v63.923ZM1.047,602.563H17.007l23.229,40.916h0L25.194,652.31,1.047,666.485Zm18.378,0H52.55l28.687,16.845-.627.368L42.05,642.414Zm166.19,39.851L149.473,621.2l-3.045-1.788,28.689-16.845h33.125l-22.625,39.852Zm25.045-39.851h47.818L231,630.5l-29.649,8.079-13.179,3.591Zm22.906,28.345,27.875-28.345H337.59L275.5,639.019l-2.039,1.2h0l-1.814,1.065ZM345.41,602.563h76.148l16.326,16.6,11.546,11.742-38.074,10.372ZM484.628,639.4l-32.633-8.891L440.613,618.93,424.52,602.563h47.818l22.489,39.612Zm-9.872-36.833h33.126l28.687,16.845-39.188,23.008Zm393.862,39.851L832.474,621.2l-3.045-1.788,28.69-16.845h33.125l-22.625,39.852Zm25.046-39.851h47.818L914,630.5l-29.649,8.079-13.179,3.591Zm22.906,28.345,27.874-28.345h76.148L958.5,639.019l-2.04,1.2h0l-1.814,1.065Zm111.842-28.345h76.148l16.326,16.6,11.546,11.742-38.074,10.372Zm138.959,36.763L1135,630.505l-11.382-11.575-16.094-16.367h47.818l22.488,39.612Zm-9.613-36.763h33.125l28.687,16.845-39.188,23.008Zm-585.284-.35-1.213-.713,2.409-1.414,26-15.263L628.075,601.5,599.669,618.18ZM763.6,616.576,737.925,601.5l10.109-5.935,18.3-10.742,16,9.392,12.407,7.284L766.331,618.18Zm491.693-14.47-1.029-.6,3.439-2.019,24.967-14.657,28.408,16.676-28.4,16.679Zm-732.861,6.541L510.257,601.5l10.874-6.384,17.531-10.292L567.068,601.5l-28.4,16.679Zm683,0-12.174-7.148,10.109-5.935,18.3-10.741,28.406,16.676-28.4,16.679ZM79.081,615.681,54.926,601.5,65.8,595.114l17.532-10.293,11.362,6.671L111.738,601.5,83.332,618.177Zm51.913-5.336L115.927,601.5l1.183-.695,27.223-15.982L172.741,601.5l-28.408,16.679Zm689.238,3.662-21.3-12.51,28.406-16.677L855.743,601.5l-28.408,16.679ZM241.542,580.2l-7.975-8.109,22.827-6.22,15.249-4.155,1.814,1.065,64.131,37.653H261.441Zm122.629,9.219,47.185-27.7,18.248,4.973,19.825,5.4-1.179,1.2-26.693,27.144H345.409ZM924.542,580.2l-7.974-8.109,22.827-6.22,15.249-4.155,1.814,1.065,33.657,19.761,30.475,17.892H944.443Zm128.521,5.76,41.293-24.244,22.689,6.183,15.385,4.192-27.872,28.343h-76.148Zm-850.217.71-14.674-25.847L231,572.494l27.478,27.939H210.661Zm249.147-14.175,42.831-11.672-22.489,39.611H424.52Zm433.5,13.558-14.324-25.23L914,572.494l27.477,27.939H893.663ZM1135,572.494l42.831-11.672-22.488,39.611h-47.818ZM725.048,560.585,744.7,572.12l19.542,11.473-25.654,15.062-3.034,1.781H702.425Zm-123.287,23.01,39.19-23.01.739,1.3v0l12.678,22.332,9.208,16.219H630.45Zm683,0,39.189-23.01.739,1.3v0L1337.02,583.6l9.557,16.834h-33.125ZM497.38,560.583l39.188,23.009-28.686,16.841H474.756Zm683,0,39.188,23.009-27.485,16.137-1.2.7h-33.126Zm-1138.332,0,8.4,4.93L81.24,583.59,52.551,600.433H19.425Zm104.378,23.01,39.19-23.01,14.477,25.5,8.148,14.352H175.117Zm683,0,39.19-23.01,14.343,25.265,8.282,14.587H858.119Zm-289.716-.613V549.623L568.119,566.3v33.356Zm30.5,16.677V566.3l8.67-5.091,19.736-11.586v33.356l-.206.121-26.949,15.822-1.251.735Zm197.165-16.677V549.623l24.612,14.448,3.8,2.229v33.358Zm455.336,0V549.623L1251.12,566.3v33.356Zm30.5,16.677V566.3l9.108-5.348,19.3-11.329v33.356l-.223.131-25.775,15.133-2.408,1.414ZM114.882,567.527V566.3l8.668-5.089,19.736-11.586v33.356l-.205.121-26.949,15.821-1.249.733Zm683,0V566.3l9.108-5.348,19.3-11.329v33.356l-.223.131-28.183,16.546ZM84.38,582.976V549.62L110.244,564.8l2.542,1.492v33.358h0ZM656.9,584.424l-14.139-24.9,3.011-1.768,36.174-21.238v63.922H665.995Zm27.141-47.91,22.822,13.4,16.366,9.609h0l-23.228,40.916H684.045Zm655.227,46.795-13.505-23.788,3.011-1.768,36.174-21.238v63.922H1349ZM1.047,536.51l24.146,14.176,15.042,8.831h0L17.007,600.433H1.047ZM455.33,535.9l38.95,22.868-42.828,11.671-19.768-5.387-17.763-4.841,40.366-23.7v0Zm683,0,38.95,22.868-42.828,11.671-19.922-5.428-17.61-4.8,40.366-23.7v0ZM188.715,558.764l38.95-22.867L254.7,551.77l14.375,8.439-22.607,6.16-14.928,4.067Zm683,0,38.95-22.867L937.7,551.77l14.375,8.439-22.606,6.16-14.928,4.067ZM293.066,571.833l-18.561-10.9-1.814-1.064-10.2-38.718,38.074,10.372,12.373,21.793,25.7,45.27Zm89.37-40.308,38.074-10.372-10.2,38.718-1.813,1.064h0L353.374,593.3l-9.017,5.293Zm575.07,29.41-1.814-1.064-10.2-38.718,10.058,2.74,28.016,7.632,24.265,42.74,13.809,24.324Zm70.028,37.346,37.9-66.756,38.074-10.372-10.2,38.718-1.813,1.064L1036.376,593.3l-9.017,5.293ZM745.625,570.206,726.1,558.74l22.627-39.848,16.561,29.172v33.683ZM499.71,559.49l-1.279-.751,22.624-39.85,16.565,29.174v33.682Zm101-11.426,16.565-29.174,8.447,14.878L639.9,558.74l-39.19,23.01Zm582,11.426-1.279-.751,22.624-39.85,16.564,29.174v33.682Zm101-11.426,16.564-29.174,22.625,39.85-22.388,13.146-16.8,9.865ZM63.066,570.461,43.1,558.737,54.174,539.23l11.55-20.341,16.562,29.172v33.683Zm82.314-22.4,16.564-29.175,22.624,39.851L145.38,581.744Zm683,0,16.565-29.175,22.624,39.851-39.188,23.007ZM539.432,547l-16.564-29.174h45.251V563.84Zm30.781-29.174h45.251L598.9,547,570.213,563.84Zm220.808,43.218L767.1,547l-16.563-29.174h45.252v46.016ZM1222.433,547l-16.564-29.174h45.251V563.84Zm30.782-29.174h45.25L1281.9,547l-28.687,16.841ZM109.071,561.655,84.1,547,67.536,517.821h45.25v46.014Zm5.811-42.328v-1.506h45.248L143.567,547l-28.684,16.84Zm683,0v-1.506h1.481l0,0h43.772L826.568,547l-28.686,16.841Zm342.55,15.337,54.436-31.961,7.375,12.988h0l.6,1.065-11.242,19.8-11.987,21.114Zm-683,0,54.436-31.962,7.373,12.989.605,1.065-11.318,19.935-11.911,20.98ZM174.4,536.558l-11.242-19.8.6-1.065,7.374-12.988,10.223,6,44.215,25.96-39.187,23.008Zm683.077.134-11.317-19.936.6-1.065,7.374-12.988,10.223,6,44.215,25.96-39.187,23.008ZM303.423,532.3h0l-.441-.776-.607-1.068,10.2-38.718,27.872,28.345v77.436Zm39.122-10.087v-2.13l27.875-28.345,6.774,25.7,3.429,13.012-38.078,67.065Zm659.906,38.315L986.425,532.3l-.5-.876-.549-.969,10.2-38.718,27.872,28.345v77.436Zm23.1-38.315v-2.13l27.874-28.345,3.058,11.6,7.146,27.115-38.077,67.065ZM254.763,549.345l-26.051-15.294v-45.74l29.709,30.21,1.647,1.676,10.057,38.167Zm162.3-6.876L422.93,520.2l28.5-28.985,2.853-2.9v45.736l-3.922,2.3-37.491,22.011Zm520.7,6.876-26.051-15.294v-45.74l29.709,30.21,1.648,1.676,10.057,38.167Zm162.3-6.876,5.87-22.271,26.174-26.617,5.182-5.27v45.736l-3.995,2.346-37.418,21.969ZM456.38,532.818V486.808h46.46l7.978,14.053-1.616.949-50.991,29.939-1.832,1.073Zm683,0V486.808h46.46l7.979,14.053h0l-3.968,2.329-48.143,28.266-2.328,1.365Zm-957.46-26.239-9.742-5.72,7.979-14.053h46.46v46.016Zm80.353,12.31-.726-.2-28.5-28.985-2.853-2.9h44.979l23.909,42.11Zm145.55-32.083H452.8l-31.356,31.885-.712.194-36.822,10.031Zm457.1,19.773-9.742-5.72,7.978-14.053h46.46v46.016Zm80.353,12.31-.726-.2-28.5-28.985-2.853-2.9h44.979l23.909,42.11Zm133.491-10.843,12.059-21.24h44.981l-2.853,2.9-28.5,28.985-.829.226-36.7,10Zm-429.1,23.592,4.815-18.27,27.474-27.939v48.626l-24.2,14.207L643,556.925Zm55.153,14.61-20.769-12.193V485.428l9.338,9.495,18.139,18.445,6.2,23.545L723,556.922Zm627.849-14.61,4.815-18.27,27.474-27.939v48.626l-24.2,14.207L1326,556.925ZM10.813,539.785l-9.766-5.734V485.425L11.241,495.79l17.284,17.574,8.8,33.413L40,556.92Zm704.455-20.432-1.722-6.537,2.566-9.738,7.491-28.426,23.909,42.111-22.491,39.608Zm-96.782-2.593.6-1.065,23.3-41.045,10.057,38.166-5.119,19.427-6.359,24.126Zm683,0,.6-1.065,23.3-41.045,10.057,38.166-5.119,19.427-6.359,24.126ZM34.472,527.7l-3.924-14.892,2.477-9.4,7.58-28.763,23.909,42.111-11,19.372L42.024,556.368Zm544-18.9,24.582-24.995,37.532-10.228-23.908,42.11H571.694Zm681.214,1.818,26.37-26.812,37.532-10.228-23.909,42.11H1254.7Zm-534.266-37.04,37.534,10.228,24.582,24.995,6.773,6.888h-44.98ZM57.663,500.434,42.417,473.58l37.534,10.229,24.582,25,6.774,6.887H66.327Zm456.017,1.208,1.248-.733,53.191-31.229v46.014h-46.46Zm683,0,54.439-31.961v46.014h-46.46Zm-1081.8-31.964,45.226,26.554,9.21,5.407-7.979,14.053H114.882Zm683,0,44.7,26.243,9.742,5.72-7.978,14.053h-46.46Zm-520.29,17.13-.6-1.065L287.4,467.407l12.079-21.276,11.478,43.553L300.9,527.851Zm683,0-.6-1.065,10.491-18.478,12-21.131,11.478,43.553L983.9,527.851Zm-582.5,25.824-6.046-22.946,9.8-37.205,1.673-6.35,11.835,20.843,10.655,18.766L382.1,527.849Zm683.342,1.291-6.387-24.237,6.2-23.546,5.272-20.01,22.491,39.608L1065.1,527.849ZM342.545,469.675v-1.229l20.769-12.193L381.5,445.578l-2.2,8.362-9.272,35.193-27.478,27.942Zm683,0v-1.229l20.769-12.193,18.184-10.675-5.272,20.01-6.2,23.545-27.477,27.942Zm-706.428,25.7-6.143-6.247-4.815-18.27L301.5,445.575l14.756,8.663,24.2,14.207v48.629Zm683,0-6.143-6.247-4.815-18.27L984.5,445.575l14.756,8.663,24.2,14.207v48.629Zm-497.465-9.637,23.228-40.916,39.185,23.01-27.218,15.98L512.633,499.8Zm683,0,23.229-40.916,39.185,23.01-54.436,31.96Zm-344.512,8.048-44.21-25.958,39.183-23.008,11.911,20.98,11.317,19.935-.6,1.065-7.374,12.988Zm-682.52.282-44.693-26.241,39.185-23.008,23.228,40.915-.6,1.065-7.374,12.988Zm607.747-7.763-3.939-4.006-10.057-38.167,21.134,12.408,20.279,11.906v45.736Zm-683,0L81.433,482.3,71.375,444.136l21.988,12.908,19.423,11.4v45.735Zm484.841-17.857,41.413-24.316-10.057,38.169-21.722,22.087-9.633,9.8Zm683,0,41.412-24.316-10.057,38.169-23.05,23.437-8.305,8.446ZM456.38,483.169V438.663l9.081,5.332,19.606,11.512,16.561,29.171H457.859l0,0H456.38Zm683,0V438.663l8.849,5.2,19.837,11.648,16.561,29.171h-43.769l0,0h-1.481ZM197.932,455.5l28.686-16.842v46.016H181.367Zm30.781-16.842L257.4,455.5l16.564,29.174H228.712ZM880.933,455.5l28.686-16.842v46.016h-45.25Zm30.781-16.842L940.4,455.5l16.564,29.174H911.714ZM425.6,455.5l24.973-14.66,3.717-2.182v46.016H409.033Zm683,0,23.923-14.044,4.766-2.8v46.016h-45.253ZM530.214,443.737,554,437.254l19.041-5.188,37.534,10.225-41.414,24.317Zm237.552,5.8-12.347-7.249,37.535-10.226,19.3,5.258,23.528,6.411L796.834,466.6l-1.047-.615v.006Zm445.45-5.8,25.485-6.944,17.346-4.726,37.534,10.225-41.414,24.317ZM100.4,458.714,72.419,442.289l37.535-10.225,19.129,5.212,23.7,6.457L113.832,466.6l-1.047-.615h0Zm386.484-4.272V420.756l39.188,23.007-22.625,39.853Zm683,0V420.756l39.188,23.007-22.625,39.853Zm-329.951-10.68,39.187-23.008v33.681L862.555,483.61Zm-682.262,1.3-.739-1.3,39.187-23.008v33.683L179.553,483.61Zm238.517,19.111L384.6,443.76l28.166-16.536,11.022-6.471v33.683l-15.514,27.327h0l-1.048,1.845ZM1067.6,443.76l28.166-16.536,11.022-6.471v33.683l-15.514,27.327h0l-1.047,1.845ZM259.213,454.436V420.751L298.4,443.76l-22.625,39.85Zm683,0V420.751L981.4,443.76l-22.625,39.85Zm-298.338,17.6,31.961-56.294,6.113-10.767v77.436L654.08,510.758Zm683,0,28.8-50.723,9.276-16.339v77.436l-27.871,28.343Zm-633.76,19.6-9.073-9.225V404.979l38.078,67.063-7.009,26.6-3.195,12.122ZM1.047,482.413V404.976l32.5,57.231,5.582,9.831L35.3,486.558l-6.377,24.2Zm613.144-39.783,65.946-38.715-8.031,14.144-30.044,52.917L603.989,481.35Zm683,0,65.946-38.715-10.8,19.02-27.275,48.041-38.074,10.375Zm-611.334-38.72,43.607,25.6,22.2,13.031v0l.148.088,10.2,38.718-38.074-10.375-13.313-23.447L685.858,403.91h0Zm-683,0,65.8,38.634v0l.148.087,10.2,38.718L40.938,470.972,29.169,450.245,2.859,403.907l0,0Zm462.224,37.407-8.7-5.111V402.846l28.406,16.68v33.356Zm682.748-.149-8.449-4.962V402.846l28.406,16.68v33.356ZM881.214,419.525l28.406-16.68V436.2l-9.108,5.348-19.3,11.329Zm-683,0,28.406-16.679V436.2l-8.671,5.091-19.735,11.586Zm30.5,16.677V402.843l28.406,16.68v33.354Zm683,0V402.843l28.406,16.68v33.354ZM425.877,419.523l28.409-16.681V436.2l-28.409,16.676Zm683,0,27.85-16.353.559-.328V436.2l-28.409,16.676ZM527.116,441.918,490.974,420.7l-3.045-1.788,28.689-16.845h33.126l-22.625,39.852Zm25.046-39.851H599.98L572.5,430.009l-29.649,8.079-13.179,3.591Zm22.905,28.346,27.875-28.346H679.09L616.7,438.7l-1.74,1.021-1.814,1.065Zm141.091-11.174L686.91,402.067h76.149l16.326,16.6,11.545,11.743-38.074,10.372ZM826.128,438.9l-32.633-8.891-11.381-11.576-16.093-16.367h47.817l22.488,39.612Zm-9.871-36.833h33.126l28.684,16.843L838.88,441.917Zm354.673,16.845,28.689-16.845h33.126l-22.625,39.852Zm64.234-16.845h47.817L1255.5,430.009l-29.649,8.079-13.179,3.591Zm22.905,28.346,27.875-28.346h76.148L1299.7,438.7l-1.74,1.021-1.813,1.065ZM32.178,418.66l-28.267-16.6H80.059l16.326,16.6,11.546,11.743L69.857,440.782Zm110.693,20.167L110.5,430.006,99.115,418.431,83.021,402.064H130.84l22.488,39.612Zm-9.613-36.763h33.126l28.685,16.844-39.187,23.007Zm145.7,27.821-18.7-10.977,28.686-16.844h33.126l-8.959,15.781-12.927,22.77h0l-.739,1.3Zm22.306,13.1,14.36-25.294,8.869-15.622h15.957v63.922Zm41.28-40.916H358.5l23.229,40.916h0l-16.366,9.608-22.822,13.4Zm40.475,38.922-22.1-38.922h33.125l28.687,16.844-11.022,6.471-28.166,16.535Zm560.245-22.078,28.687-16.844h33.126L983.19,440.616v0l-.739,1.3Zm41,24.072,13.821-24.345,9.408-16.571h15.957v63.922Zm41.28-40.916h15.96l23.228,40.916-16.366,9.608-22.821,13.4Zm18.378,0h33.126l28.686,16.844-39.188,23.007Zm-584.734-.027L457.428,401l12.722-7.469,15.684-9.208L514.242,401l-28.409,16.68ZM851.758,401l7.685-4.512,20.721-12.165L908.569,401l-28.406,16.68Zm288.672,0,21.674-12.725,6.731-3.953,27.777,16.306.632.371-28.409,16.68Zm-971.671,0,6.4-3.755,22.01-12.922,1.047.615L225.571,401l-28.406,16.679Zm61,0,27.359-16.062,1.047-.615L286.575,401l-28.406,16.679Zm166.664,0,28.406-16.677,9.584,5.627L453.236,401,424.83,417.678Zm516.337,0,27.359-16.062,1.047-.615L969.575,401,941.17,417.678Zm166.664,0,6.4-3.755,22.011-12.922,9.584,5.627L1136.238,401l-28.406,16.679ZM581.389,378.022l-6.322-6.428,38.077-10.375,38,22.313,27.942,16.405H602.942Zm171.466-16.8,19.026,5.185,19.048,5.191L776.85,385.912l-13.792,14.025H686.91Zm511.535,16.8-6.322-6.428,38.077-10.375,38,22.313,27.942,16.405h-76.148ZM69.857,361.216l19.506,5.315,18.569,5.06L93.689,386.074l-13.63,13.86H3.911Zm461.287,1.7-1.47-2.59,18.244,4.972L572.5,372l6.578,6.689,20.9,21.251H552.162Zm248.47,23.2L793.495,372l19.061-5.194,23.77-6.478-22.488,39.612H766.021Zm434.532-23.2-1.471-2.59,18.244,4.972L1255.5,372l6.578,6.689,20.9,21.251h-47.817ZM96.452,386.276,110.5,371.995l19.377-5.28,23.454-6.392L130.84,399.934H83.022Zm742.428-26.191,39.19,23.008-20.7,12.152-7.99,4.691H816.257ZM487.928,383.095l39.191-23.011,22.625,39.852H516.617Zm683,0,39.191-23.011,22.625,39.852h-33.126ZM155.882,360.082l39.188,23.01-28.686,16.842H133.258Zm227.665,0,1.283.753,19.3,11.33,18.609,10.925-10.5,6.163-18.191,10.68H360.923Zm683,0,1.283.753,19.3,11.33,18.61,10.925-28.689,16.843h-33.126ZM260.26,383.092l39.189-23.01.739,1.3h0l21.886,38.551H288.949Zm683,0,39.189-23.01.739,1.3h0l21.887,38.551H971.951ZM456.38,367.028V365.8l28.406-16.677V382.48l-.124.073-28.282,16.6Zm683,0V365.8l8.423-4.945,19.983-11.732V382.48l-.076.044-28.33,16.632ZM211.712,390.4l-13.5-7.925V349.121L226.618,365.8v33.356Zm17-23.375V365.8l28.406-16.677v33.357l-.146.085-13.354,7.84-14.907,8.751Zm652.5,15.45V349.121L901.2,360.853l8.423,4.945v33.356Zm30.5-15.45V365.8l28.406-16.677v33.357l-.146.085L926.62,390.4l-14.907,8.751Zm-485.836,15.45V349.121L454.286,365.8v33.358Zm683,0V349.121l26.971,15.833,1.438.844v33.358Zm-807.613-23.46,39.186-23.007v63.923H324.494Zm41.28-23.007,39.189,23.007L358.5,399.934H342.545Zm641.722,23.007,39.186-23.007v63.923H1007.5Zm41.28-23.007,39.188,23.007-23.228,40.916h-15.96ZM548.46,363.24l-18.243-4.972,29.651-17.409,9.3-5.459,1.047.615h0l40.366,23.7L573.044,369.94Zm683,0-18.243-4.972,30.151-17.7,8.8-5.166,1.048.615h0l40.365,23.7-37.535,10.228Zm-457.113,1.63-18.926-5.158,41.41-24.314,38.952,22.87-23.77,6.478-19.061,5.194Zm-682.567.114L72.423,359.71,113.832,335.4l38.952,22.869-23.453,6.392-19.377,5.28Zm560.415,16.7-38-22.313-10.2-38.718,8.463,2.306,29.611,8.067L668.222,377.1l11.915,20.987Zm46.459-6.129,25.283-44.53,38.074-10.372-10.2,38.718-1.814,1.065h0l-42.743,25.1-21.393,12.56Zm636.543,6.129-38-22.313-10.2-38.718,38.074,10.372,31.216,54.985,6.858,12.079ZM17.5,372.305l23.437-41.28,38.074-10.372-9.7,36.82-.5,1.9L67,360.436h0L2.86,398.092Zm469.38-24.741,16.565-29.174,22.624,39.851-39.188,23.007Zm683,0,16.564-29.174,3.2,5.632,19.427,34.219-39.188,23.007Zm-765.569,22.25L384.6,358.238l22.626-39.848,16.562,29.172v33.683Zm683,0L1067.6,358.238l22.626-39.848,16.562,29.172v33.683Zm-929.1-10.824h0l-1.283-.753,22.624-39.851,16.564,29.174v33.683Zm101-11.429,16.564-29.174,18.167,32,4.458,7.851-39.189,23.011Zm580.718,10.677,22.624-39.851,16.564,29.174v33.686Zm102.284-10.677,16.564-29.174,20.6,36.291,2.02,3.559-39.189,23.011ZM456.38,318.828v-1.5h45.251L485.067,346.5,465.485,358l-9.1,5.345Zm683,0v-1.5h45.25L1168.069,346.5l-19.861,11.66-8.826,5.182Zm-935.027,31.44-6.423-3.771-16.564-29.175h45.251v46.016Zm24.357-32.946h45.251L257.4,346.5l-6.423,3.771-22.264,13.07Zm224.269,45.25L425.6,346.5l-16.563-29.175h45.252v46.017Zm447.813-4.416L880.933,346.5l-16.564-29.175h45.25v46.016Zm10.92-40.835h45.251L940.4,346.5l-6.424,3.771-22.263,13.07Zm222.768,44.369L1108.6,346.5l-16.563-29.175h45.252v46.017ZM515.046,334.565l-10.392-18.3.6-1.065,2-3.518,5.376-9.471,47.175,27.7,7.263,4.264L535.6,352.644l-7.721,4.533Zm682.17-1.465-9.56-16.839.6-1.065,2-3.518,5.377-9.471,45.788,26.883,8.651,5.079-11.342,6.659-27.846,16.349ZM115.929,334.166,170.366,302.2l5.317,9.366,2.056,3.622.6,1.065-9.56,16.839-13.668,24.077Zm683,0L853.367,302.2l5.317,9.366,2.056,3.622.6,1.065-10.391,18.3-12.838,22.612Zm-154-2.359-.489-.862-.558-.982,10.2-38.718,6.321,6.428,21.551,21.918v77.436Zm39.121-10.086v-2.13l27.875-28.346,3.161,11.995,7.042,26.722-38.078,67.065Zm643.88,10.086h0l-1.047-1.844,10.2-38.718,6.32,6.428,21.551,21.918v77.436ZM1.047,321.718v-2.13l26.842-27.3,1.032-1.05,3.194,12.122,7.009,26.595L14.3,373.68,1.047,397.024ZM74.03,347.787l7.4-28.089,3.132-3.185,28.221-28.7V333.55l-6.755,3.966L71.375,357.862Zm496.19-14.229-.007,0V287.815L601.569,319.7l10.057,38.166ZM757.029,347.79l7.4-28.089,3.133-3.186,28.224-28.7v45.737l-7.366,4.325-34.047,19.989Zm496.186-14.236V287.815L1284.57,319.7l10.057,38.166Zm-693.747-6.309L513.68,300.362l5.286-9.311,2.692-4.742h46.46v46.016Zm43.582-9.05-3.133-3.186-28.223-28.7h44.979l23.909,42.111Zm146.275-31.886h44.981L762.95,318.2,725.416,328.42Zm491.891,40.2-44.535-26.148,5.236-9.222,2.743-4.831h46.46v46.016Zm44.835-8.315-3.133-3.186-28.223-28.7h44.979l23.909,42.111ZM45.227,323.469l20.5-36.1.1-.172.5-.89h44.981L79.951,318.192,42.417,328.418Zm69.656-37.163H161.34l2.717,4.786,5.261,9.268L117,331.079l-2.114,1.239Zm683,0v0h46.46l2.648,4.664,5.331,9.39-52.337,30.729-2.1,1.232ZM312.976,312.865l14.044-14.282,13.431-13.658v48.626l-7.28,4.274-31.674,18.6Zm29.569,20.686V284.925l16.1,16.366,11.381,11.573,9.272,35.194,2.2,8.362Zm653.432-20.686,14.044-14.282,13.431-13.658v48.626l-7.28,4.274-31.674,18.6Zm29.569,20.686V284.925l16.1,16.366,11.381,11.573,9.272,35.194,2.2,8.362ZM381.318,347.507l-9.272-35.193,5.773-21.908,4.284-16.256,23.908,42.111-22.49,39.609Zm683,0-9.272-35.193,5.912-22.436,4.146-15.728,23.909,42.111-22.491,39.609ZM282.355,325.713l-5.368-9.456.6-1.065,23.3-41.045,10.057,38.167-8.394,31.851-3.083,11.7Zm682.481-.918-4.847-8.538.6-1.065,23.3-41.045,10.057,38.167-8.394,31.851-3.084,11.7ZM242.246,302.937l19.3-19.628,37.532-10.227-23.909,42.111H230.194Zm683,0,19.3-19.628,37.532-10.227-23.909,42.111H913.2ZM383.915,273.082l37.534,10.227L452.8,315.192h-44.98Zm683,0,37.534,10.227,31.355,31.883h-44.98ZM456.38,315.192V269.179l11.809,6.934,42.63,25.029-5.331,9.39-2.648,4.664H456.38Zm683,0V269.179l10.747,6.31,43.692,25.653-5.331,9.39-2.648,4.664h-46.46ZM177.466,310.45l-5.286-9.311,35.778-21.005,18.661-10.956v46.015h-46.46Zm683,0-5.286-9.311,27.462-16.123,26.977-15.839v46.015h-46.46ZM619.092,286.309l-.6-1.065,5.644-9.94,16.844-29.669,11.478,43.553L642.4,327.355Zm683,0-.6-1.065,5.095-8.974,17.393-30.635,11.478,43.553L1325.4,327.354Zm-588.546,2.88,9.031-34.277,2.444-9.279,22.491,39.609-8.537,15.035L723.6,327.352Zm-683,0,9.031-34.277,2.445-9.279,22.49,39.609-7.839,13.808-16.069,28.3Zm653.5-20.005v-1.23L723,245.081l-2.445,9.278-9.031,34.278-13.882,14.117-13.6,13.825Zm-22.991,26.147-6.577-6.689L643,245.079l31.674,18.6,7.28,4.274v48.629Zm683,0-6.577-6.689L1326,245.079l31.674,18.6,7.28,4.274v48.629ZM1.047,269.176v-1.23L40,245.078l-2.444,9.279-9.031,34.278L14.786,302.6,1.047,316.576Zm467.127,4.468-10.746-6.31,39.188-23.008,12.838,22.613,10.392,18.3-.605,1.065-2.056,3.623-5.317,9.366Zm681.835-.685-9.58-5.625,39.188-23.008,13.669,24.078,9.56,16.839-.6,1.065h0l-2.12,3.734-5.254,9.254ZM163.154,285.241l7.678-13.524,15.551-27.393,39.186,23.01-54.436,31.96Zm683,0,7.546-13.293,15.682-27.623,39.186,23.01-54.436,31.96ZM422.93,281.8l-7.9-29.971-2.159-8.2,15.6,9.16,25.812,15.154v45.737Zm683,0-7.9-29.971-2.159-8.2,13.265,7.788,28.148,16.525v45.737Zm-877.22-13.854,18.883-11.087,22.531-13.229L260.068,281.8l-31.356,31.883Zm683,0L930.6,256.863l22.531-13.229L943.07,281.8l-31.356,31.883ZM539.432,255l19.861-11.661,8.826-5.181v46.016H522.868Zm30.781-16.841,22.263,13.07L598.9,255l16.564,29.175H570.213ZM1222.433,255l6.424-3.771,22.263-13.07v46.016h-45.251Zm30.782-16.841,8.825,5.181L1281.9,255l3.71,6.536,12.854,22.639h-45.25ZM767.1,255l25.883-15.195,2.806-1.647v46.016H750.535ZM114.882,282.67V238.162L133.515,249.1l10.051,5.9,16.561,29.172H114.882ZM84.1,255l27.384-16.075,1.3-.765v46.015H67.536Zm713.783,27.671V238.16l18.891,11.093,9.8,5.751,16.561,29.172H797.882ZM201.324,250.639l-12.61-7.4,11.39-3.1,31.44-8.567,16.216,4.417,21.319,5.808-41.414,24.317Zm212.593-8.849,21.432-5.839,16.1-4.387,29.532,8.046,13.3,3.624L456.77,265.261l-1.437.844-1.047-.615h0Zm457.8,1.444,11.391-3.1,31.44-8.567,16.216,4.417,21.318,5.808-.953.56-40.461,23.757Zm225.2-1.444,21.486-5.853,16.049-4.372,30.207,8.23,12.626,3.44-37.361,21.937-1.591.934-1.047-.615h0ZM726.1,243.263l31.943-18.753,7.245-4.253V253.94l-15.514,27.327-1.047,1.845ZM510.707,264.889,498.43,243.263l39.189-23.009V253.94l-16.565,29.174Zm90.006-10.949V220.255l39.19,23.009-4.458,7.852-18.168,32Zm595.31,15.026-14.593-25.7,39.189-23.009V253.94l-16.564,29.174Zm87.691-15.026V220.255l39.189,23.009-22.625,39.85ZM43.1,243.26l38.562-22.639.627-.368v33.684L66.771,281.264l-1.048,1.844ZM145.38,253.94V220.253l1.495.878,37.5,22.015.195.115-15.9,28-6.727,11.849Zm683,0V220.253l1.494.878,37.558,22.049.136.08-8.286,14.594-14.34,25.259Zm-526.005,17.6,1.047-1.845,13.043-22.973,23.985-42.244v77.436l-27.872,28.343Zm694.412-20.1,26.664-46.964v77.436l-27.872,28.343-10.2-38.717,1.047-1.845h0ZM358.873,298.516l-16.328-16.6V204.477l38.078,67.063-5.493,20.843-4.71,17.875Zm683,0-16.328-16.6V204.477l38.077,67.063L1058.18,292.2l-4.759,18.059ZM272.691,242.127l.605-.356,65.34-38.36-38.074,67.061-38.074,10.375Zm683,0,.606-.356,65.34-38.36-38.074,67.061L945.49,280.848ZM344.358,203.407l65.8,38.634v0l.148.087,10.2,38.718-38.074-10.375-23.113-40.708-14.966-26.357h0Zm683,0,65.8,38.634v0l.148.087,10.2,38.718-38.074-10.375-21.828-38.443-16.251-28.622h0Zm-487.646,15.62,28.406-16.679V235.7l-8.423,4.945L539.713,252.38Zm30.5,16.677V202.347l28.406,16.679V252.38Zm652.5-16.677,28.406-16.679V235.7l-28.406,16.677Zm38.924,21.622-8.423-4.945V202.347l28.406,16.679V252.38ZM133.22,246.47,114.882,235.7V202.346l1.759,1.033,25.6,15.03h0l1.047.615V252.38Zm656.627-40.636,5.94-3.488V235.7l-1.438.844-26.972,15.833V219.027l1.048-.615h0ZM84.38,219.024l1.047-.615,10.459-6.142,16.9-9.923V235.7L84.38,252.378Zm732.08,27.586L797.882,235.7V202.344l27.359,16.065h0l1.047.615V252.38Zm-214.7-28.2,18.008-10.574,10.679-6.271h33.125L641.69,240.118h0l-.74,1.3Zm41,24.072,14.034-24.72,9.195-16.2h15.957V265.49Zm41.28-40.917h15.961l23.228,40.917L684.045,265.49Zm18.379,0H735.55l11.579,6.8,17.108,10.046-7.245,4.254-30.66,18-1.283.753Zm582.34,16.845,18.425-10.819,10.262-6.026h33.125l-20.127,35.452-1.759,3.1h0l-.74,1.3Zm41,24.072,13.56-23.886,9.668-17.03h15.957V265.49ZM1.047,201.564H17.007l23.229,40.916L1.047,265.487Zm18.378,0H52.551L64.188,208.4l17.05,10.012-.627.368L43.332,240.663h0l-1.283.753Zm166.19,39.851-39.188-23.006,10.013-5.879,18.676-10.966h33.126l-10.172,17.918-12.453,21.935Zm25.045-39.851h47.818L231,229.507l-27.959,7.618-14.87,4.052Zm39.48,32.861-16.574-4.515,27.875-28.346H337.59l-64.132,37.654-1.814,1.065Zm95.268-32.861h76.148l27.872,28.346-36.68,9.993-1.394.38Zm131.4,34.7-24.814-6.761-11.382-11.575L424.52,201.564h47.818l22.489,39.612Zm-2.053-34.7h33.126l18.865,11.077,9.822,5.768-39.188,23.008Zm393.862,39.851-39.188-23.006,9.68-5.684,19.009-11.161h33.125L881.23,219.2l-12.611,22.213Zm25.046-39.851h47.818L914,229.507l-27.959,7.618-14.87,4.052Zm39.479,32.861-16.574-4.515,27.874-28.346h76.148l-64.132,37.654-1.814,1.065Zm95.268-32.861h76.148l27.872,28.346-35.881,9.775-2.193.6Zm131.606,34.759L1135,229.507l-11.381-11.575-16.094-16.367h47.818l22.488,39.612Zm-2.259-34.759h33.125l18.48,10.851,10.207,5.994-39.188,23.008Zm-586.5-1.062,27.358-16.062,1.048-.614L628.075,200.5,618.039,206.4l-18.37,10.785Zm177.995,6.653L737.925,200.5l6.4-3.755,22.01-12.922,9.584,5.626,18.822,11.05-28.405,16.679Zm505.007-6.653,27.358-16.062,1.047-.614,27.777,16.305.632.371L1287.6,214.286l-4.932,2.9ZM529.154,211.6l-18.9-11.1,7.685-4.512,20.72-12.164,1.051.617,27.354,16.06-28.4,16.679Zm682.588-.244L1193.258,200.5l6.4-3.755,22.009-12.922,1.051.617,27.355,16.06-28.4,16.679ZM66.324,207.192l-11.4-6.693,7.685-4.512,20.721-12.165L111.738,200.5,83.332,217.179Zm49.6-6.693,12.722-7.469,15.684-9.208L172.741,200.5l-18.694,10.976-9.714,5.7Zm683,0L820.6,187.775l6.732-3.952,27.776,16.306.632.371L836.69,211.687l-9.355,5.492Zm-559.04-22.98-6.321-6.428,38.077-10.375,65.946,38.718H261.441Zm171.467-16.8,19.416,5.291,18.658,5.084-14.08,14.318-13.792,14.025H345.409Zm511.535,16.8-6.321-6.428,38.077-10.375,65.946,38.718H944.443Zm171.467-16.8,12.573,3.426,25.5,6.949-14.242,14.484-13.629,13.86h-76.148Zm-906.184-.894,18.243,4.972L231,171.5l6.578,6.689,20.9,21.251H210.661Zm249.94,25.789L451.994,171.5l19.061-5.194,23.771-6.478-22.489,39.612H424.52Zm434.531-23.2-1.47-2.59,18.243,4.972L914,171.5l6.578,6.689,20.9,21.251H893.663Zm248.308,23.364L1135,171.5l19.376-5.28,23.455-6.392-22.488,39.612h-47.818Zm-395.9-26.19,1.283.753,10.86,6.376,27.048,15.879-21.805,12.8-6.883,4.041H702.425ZM601.761,182.6l39.189-23.01.74,1.3h0l21.886,38.551H630.451Zm683,0,39.188-23.01.74,1.3h0l1.759,3.1,20.127,35.452h-33.125ZM497.38,159.585l39.187,23.009-28.685,16.841H474.756Zm683,0,39.188,23.009-28.685,16.841h-33.126Zm-1138.331,0,1.283.753h0l19.3,11.33L81.24,182.592,52.551,199.435H19.425Zm104.378,23.009,39.19-23.01,22.625,39.852H175.117Zm683,0,39.19-23.01,22.625,39.852H858.119Zm-289.716-.613V148.625L559.7,160.356l8.423,4.946v33.355Zm30.5-15.449V165.3l28.406-16.677v33.356l-.124.073-28.282,16.6Zm197.165,15.45V148.625l26.972,15.833,1.438.845V198.66Zm455.336,0V148.625L1251.12,165.3v33.355Zm30.5-15.449V165.3l8.423-4.946,19.983-11.731v33.356l-.136.08-28.27,16.6ZM84.38,181.978V148.621L112.786,165.3v33.358h0Zm30.5-15.45V165.3l28.4-16.675v33.357l-.124.073-28.279,16.6Zm683,0V165.3l8.423-4.945,19.983-11.732v33.357l-.136.08-28.27,16.6Zm-155.116-8.01,39.186-23.007v63.923H665.995Zm683,0,39.186-23.007v63.923H1349ZM684.045,135.515l39.189,23.007-23.228,40.916H684.045Zm-683,0,39.189,23.006L17.007,199.435H1.047ZM455.33,134.9l38.951,22.868-23.767,6.477-19.061,5.194L433.2,164.464l-19.277-5.253,40.365-23.7h0Zm683,0,38.95,22.868-23.451,6.391-19.377,5.28-18.174-4.952-19.357-5.275,40.365-23.7h0ZM206.959,162.737l-18.244-4.972,29.651-17.409,9.3-5.46,1.047.615,40.366,23.7-37.535,10.227Zm683,0-18.243-4.972,29.651-17.409,9.3-5.46,1.047.615,40.366,23.7-37.534,10.227ZM323.1,188.466l-50.406-29.594-10.2-38.718,8.463,2.305,29.611,8.067L326.721,176.6l11.916,20.987Zm34.056-13.411,25.282-44.53,38.074-10.372-10.2,38.718-1.813,1.064h0l-64.136,37.655ZM1006.1,188.466l-50.406-29.594-10.2-38.718,38.074,10.372,31.217,54.984,6.857,12.08Zm35.9-16.661,23.437-41.279,38.074-10.372-10.2,38.718-1.813,1.064h0l-64.136,37.655Zm-295.936-2.34L726.1,157.742l22.627-39.848,15.454,27.221,1.107,1.951v33.683ZM499.71,158.492l-1.279-.751,22.624-39.85,16.565,29.174v33.682Zm101-11.427,16.564-29.174,18.168,32,4.458,7.852-39.19,23.01Zm582,11.427-1.279-.751,22.624-39.85,16.564,29.174v33.682Zm101-11.427,16.564-29.174,7.542,13.283,15.083,26.567-39.189,23.01ZM62.816,169.316,43.1,157.739l22.626-39.848,16.562,29.172v33.683Zm82.565-22.253,16.564-29.174,22.624,39.851L145.38,180.746Zm683,0,16.565-29.174,22.624,39.851-39.188,23.007Zm-269.088,10.6L539.432,146l-16.564-29.174h45.251v46.016Zm10.92-40.835h45.251L598.9,146l-6.424,3.771-22.263,13.07Zm222.768,44.369L767.1,146l-16.563-29.174h45.252v46.016Zm435.877-11.423L1222.433,146l-16.564-29.174h45.251v46.016Zm24.357-32.946h45.25L1281.9,146,1262.04,157.66l-8.825,5.181ZM111.483,162.073,84.1,146,67.536,116.823h45.25v46.014Zm3.4-43.744v-1.506h45.248L143.567,146l-19.583,11.5-9.1,5.343Zm683,0v-1.506h1.481l0,0h43.772L826.568,146l-19.861,11.661-8.825,5.181ZM457.43,133.669l54.436-31.961,5.377,9.47,2,3.518.605,1.065-10.392,18.3-12.836,22.611Zm683,0,54.436-31.961,5.286,9.311,2.088,3.677h0l.6,1.065-9.56,16.839-13.668,24.076ZM172.713,132.6l-9.56-16.84.6-1.065,2.12-3.734,5.254-9.254,44.859,26.338,9.58,5.624L194.1,152.142l-7.721,4.533Zm683.833,1.465-10.391-18.3.6-1.065,2.056-3.623,5.317-9.365,44.858,26.338,9.58,5.624-31.467,18.475-7.721,4.533Zm-553.123-2.756h0l-.49-.863-.558-.982,10.2-38.718,6.321,6.428,21.551,21.918v77.435Zm39.122-10.087v-2.13L370.42,90.743l3.194,12.122,7.009,26.6-30.985,54.574-7.092,12.491Zm643.88,10.086h0l-1.047-1.844,10.2-38.718,6.321,6.428,21.551,21.918v77.435Zm39.122-10.086v-2.13l27.874-28.346,3.058,11.6,7.146,27.115L1038.8,173.18l-13.254,23.345ZM228.712,133.052V87.313L260.068,119.2l10.057,38.166Zm186.816,14.236,7.4-28.089,31.356-31.886v45.736l-6.714,3.943-34.7,20.372Zm496.185-14.236V87.313L943.07,119.2l10.057,38.166Zm186.816,14.236,7.4-28.089,3.132-3.186,28.223-28.7v45.736l-6.758,3.968-34.655,20.346ZM456.38,131.82V85.809h46.46l2.693,4.742,5.286,9.311L458.37,130.658l-1.989,1.166Zm683,0V85.809h46.46l2.693,4.742,5.286,9.311L1141.643,130.5l-2.261,1.326Zm-923.51-6.306L172.179,99.86l5.331-9.39,2.648-4.663h46.46v46.016Zm45.677-7.821-3.132-3.186-28.223-28.7h44.979l23.909,42.111Zm125.176,5.278,20.5-36.1.1-.173.5-.89H452.8l-2.882,2.93-28.474,28.956-37.534,10.225Zm512.148,2.543L855.181,99.86l5.331-9.39,2.648-4.663h46.46v46.016Zm45.678-7.821-3.132-3.186L913.2,85.807h44.979l23.909,42.111Zm125.176,5.278,20.5-36.1.083-.145.521-.917h44.98l-31.356,31.886-37.534,10.225Zm-415.249-10.6,13.881-14.116,13.593-13.823v48.626l-7.28,4.274L643,155.926Zm29.568,20.687V84.429l16.1,16.366,11.381,11.573,9.031,34.277L723,155.924Zm653.433-20.687,13.881-14.116,13.593-13.823v48.626l-7.28,4.274L1326,155.926ZM1.047,133.052V84.426l16.1,16.367,11.382,11.573L37.8,147.559l2.2,8.362Zm721.53,13.042-9.031-34.277,5.774-21.909L723.6,73.653l23.909,42.111-22.491,39.609Zm-682.757.914-9.272-35.193,5.773-21.908,4.284-16.255,23.909,42.11L42.024,155.37Zm584.036-21.791-5.369-9.456.6-1.065,23.3-41.045,10.057,38.166-8.262,31.353-3.216,12.2Zm682.481-.918-4.847-8.538.6-1.065,23.3-41.045,10.057,38.166-8.263,31.353-3.215,12.2ZM583.747,102.441l19.3-19.628,37.531-10.228L616.673,114.7H571.694Zm684.185-1.2,18.12-18.425,37.531-10.228L1299.675,114.7H1254.7ZM748.891,113.93l-.168-.3-6.83-12.03L725.416,72.585,762.95,82.813,794.305,114.7h-44.98ZM42.417,72.582,79.952,82.81l31.356,31.883H66.327Zm476.594,37.45-5.331-9.39,27.462-16.123,26.977-15.839V114.7h-46.46Zm682.932-.122-5.262-9.268,35.265-20.7,19.174-11.257V114.7h-46.46ZM114.882,68.679l9.9,5.813,44.535,26.148-5.236,9.222-2.742,4.831H114.882Zm683,0,8.651,5.079,45.788,26.883-5.286,9.311-2.692,4.742h-46.46ZM277.591,85.807l-.6-1.065,5.643-9.94,16.845-29.668,11.478,43.553L300.9,126.852Zm683,0-.6-1.065,5.095-8.974,17.393-30.635,11.478,43.553L983.9,126.852ZM372.046,88.686l9.031-34.277,2.445-9.278,22.49,39.609-7.84,13.808L382.1,126.85Zm683,0,9.031-34.277,2.445-9.278,22.491,39.609-7.84,13.808-16.069,28.3Zm-712.5-20.009v-1.23L381.5,44.579l-2.444,9.278-9.031,34.277L356.14,102.252l-13.595,13.825Zm683,0v-1.23L1064.5,44.579l-2.444,9.278-9.031,34.277-13.883,14.117-13.594,13.825ZM319.553,94.823l-6.577-6.689L301.5,44.576l31.674,18.6,7.28,4.274v48.629Zm683,0-6.577-6.689L984.5,44.576l31.674,18.6,7.28,4.274v48.629Zm-497.9-10.079L512.2,71.452l15.682-27.623,12.162,7.141,27.024,15.868L512.633,98.8Zm683,0,7.678-13.523,15.551-27.393,13.546,7.954,25.64,15.056L1195.634,98.8ZM806.192,71.1l-7.258-4.261,39.184-23.009,12.836,22.611,10.391,18.3-.6,1.065-2,3.518L853.367,98.8Zm-681.614.815-8.647-5.077,39.185-23.009L168.784,67.9l9.56,16.839-.6,1.065-2,3.518L170.366,98.8Zm639.853,9.395-7.756-29.434-2.3-8.733,13.265,7.788,28.148,16.525V113.19Zm-683,0-7.9-29.972-2.16-8.195,13.266,7.788,28.145,16.524v45.735ZM570.213,67.453l15.953-9.367,25.46-14.949L601.569,81.306,570.213,113.19Zm683,0L1270.669,57.2l23.958-14.067L1284.57,81.306l-31.355,31.884ZM456.38,82.17V37.664l18.27,10.728,10.417,6.116L501.628,83.68h-43.77l0,0H456.38Zm683,0V37.664l18.47,10.846,10.216,6L1184.63,83.68h-43.769l0,0h-1.481ZM197.932,54.5l6.423-3.771,22.263-13.071V83.677H181.367Zm30.781-16.841,22.264,13.071L257.4,54.5l16.564,29.174H228.712ZM880.933,54.5l19.861-11.66,8.826-5.181V83.677h-45.25Zm30.781-16.841,22.263,13.071L940.4,54.5l16.564,29.174H911.714ZM425.6,54.5l27.384-16.076,1.306-.766V83.677H409.034Zm683,0,25.883-15.194,2.806-1.647V83.677h-45.252ZM530.214,42.738l11.391-3.1,31.44-8.566,16.215,4.417,21.319,5.807-4.486,2.634L569.165,65.609Zm225.2-1.445,37.535-10.226,29.532,8.046,13.3,3.622L796.834,65.6l-1.047-.615v.006Zm467.139,6.929-9.341-5.485.392-.107,42.438-11.563,16.216,4.417,21.319,5.807-41.414,24.317ZM72.419,41.291,93.9,35.437l16.05-4.372,30.207,8.23,12.623,3.439L113.832,65.6l-1.047-.615v0ZM486.881,53.443V19.757l37.847,22.22,1.341.787-8.286,14.595-14.34,25.258Zm683,0V19.757L1207.77,42l1.3.763-8.507,14.985-14.118,24.868ZM852.208,64.387,839.932,42.763l39.187-23.008V53.437L862.555,82.612ZM171.521,68.464l-13.852-24.4-.739-1.3,39.187-23.008V53.437L179.553,82.612ZM384.6,42.761l38.561-22.639.627-.368V53.437L408.269,80.765l-1.048,1.844Zm683,0,38.561-22.639.627-.368V53.437l-1.152,2.029L1090.6,81.938l-.381.671ZM259.213,53.437V19.753L298.4,42.762l-4.458,7.851-18.167,32Zm683,0V19.753L981.4,42.762l-22.625,39.85ZM681.951,3.981V81.417L654.08,109.759l-10.2-38.717,1.048-1.845h0Zm683,0V81.417l-27.871,28.343-10.2-38.717,1.047-1.845h0ZM700.374,98.02l-16.329-16.6V3.98l38.078,67.062L716.63,91.885l-4.71,17.875Zm-683,0L1.047,81.414V3.977L39.125,71.04,33.632,91.883l-4.71,17.874ZM614.191,41.631l.606-.356,65.34-38.36L642.063,69.976,603.989,80.352Zm683,0,.606-.356,65.34-38.36-38.074,67.061-38.074,10.375ZM685.858,2.91l65.8,38.634v0l.148.087,10.2,38.718L723.937,69.976,700.823,29.269,685.858,2.911h0Zm-683,0,65.8,38.634v0l.148.087,10.2,38.718L40.938,69.974,19.11,31.53,2.859,2.908h0ZM474.38,45.773l-18-10.569V1.848l27.359,16.064h0l1.048.615V51.884Zm683.188.11L1139.382,35.2V1.848l4.3,2.526,23.055,13.538,1.048.615V51.884ZM881.214,18.526l.138-.081.906-.532L909.619,1.846V35.2L901.2,40.146,881.214,51.878Zm-683,0,.023-.013,1.025-.6,25.6-15.03,1.762-1.035V35.2L198.212,51.878Zm30.5,16.677V1.845l28.406,16.68V51.878Zm683,0V1.845l28.406,16.68V51.878ZM425.877,18.525l1.047-.615h0L454.286,1.843V35.2L425.877,51.878Zm683,0,1.047-.615h0l10.084-5.921,17.277-10.145V35.2l-1.437.844-26.971,15.833Zm-620.95-.612,9.41-5.525,19.28-11.319h33.126l-10.014,17.64L527.119,40.92h0ZM552.162,1.068H599.98L572.5,29.01l-27.958,7.618-14.871,4.051Zm39.479,32.86-16.574-4.515L602.942,1.068H679.09L614.958,38.721l-1.814,1.065ZM686.91,1.068h76.149L790.93,29.414,754.25,39.406l-1.394.38Zm131.4,34.7-24.815-6.76L782.114,17.435,766.021,1.068h47.817l22.488,39.611Zm-2.053-34.7h33.125l23.965,14.071,4.72,2.772L838.88,40.918ZM1170.93,17.912l8.994-5.281,19.7-11.563h33.126L1210.12,40.92h0Zm64.234-16.844h47.817L1255.5,29.01l-27.958,7.618-14.871,4.051Zm39.479,32.86-16.574-4.515,27.875-28.346h76.148L1297.96,38.721l-1.814,1.065ZM3.911,1.065H80.059l27.872,28.346L72.051,39.186l-2.193.6ZM135.517,35.824,110.5,29.007,99.115,17.432,83.021,1.065H130.84l22.488,39.612ZM133.258,1.065h33.126l18.48,10.851,10.205,5.993L155.882,40.916Zm137.311,22.9-10.306-6.05L278.031,7.476l10.918-6.411h33.126L300.189,39.617v0l-.739,1.3Zm30.7,18.021L315.3,17.261l9.2-16.2h15.957V64.987Zm41.28-40.916H358.5l23.229,40.916L342.545,64.988Zm18.378,0h33.126L405.686,7.9l17.05,10.012-.626.368L384.83,40.163l-1.283.753ZM950.252,22.013l-6.988-4.1,17.5-10.278,11.183-6.567h33.126L983.19,39.617v0l-.739,1.3Zm34.015,19.968L997.827,18.1l9.669-17.03h15.957V64.987Zm41.28-40.916h15.96l23.228,40.916-39.188,23.007Zm18.378,0h33.126l11.71,6.876,16.976,9.969-.627.368-37.279,21.885-1.283.753ZM1197.239,0l.005,0-19.8,11.626-8.608,5.054L1140.429,0l.005,0h-4.2l-28.406,16.68-16.923-9.937L1079.425,0H969.575l-10.74,6.307L941.169,16.68,912.761,0h-4.2l0,0-28.406,16.68-4.931-2.9L851.758,0l0,0H514.237l.005,0-19.348,11.36-9.061,5.32L457.428,0l0,0h-4.2l-28.4,16.678h0L407.823,6.693,396.424,0H286.575L276.2,6.094,258.168,16.68,229.76,0h-4.189L197.165,16.68l-9.923-5.826L168.759,0H0V2.13H0V132.437H0V403.129H0v0H0v130.3H0V802H168.764l-.005,0,6.4-3.754,22.01-12.922L218,797.554,225.571,802l0,0h4.2l-.005,0,5.556-3.261,22.85-13.416L286.574,802l0,0H396.429l0,0,7.685-4.511,20.721-12.166,11.362,6.671L453.236,802l0,0h4.2l1.183-.694,27.223-15.982L514.242,802H851.758l10.874-6.384,17.532-10.292L908.569,802h4.2l-.005,0,5.555-3.261,22.851-13.416L969.575,802l0,0h109.86l-.005,0,6.4-3.754,22.011-12.922,11.363,6.671L1136.238,802l0,0h4.2l28.406-16.676L1197.244,802H1366V0Z" transform="translate(1366 802) rotate(180)" fill="#7e5462" opacity="0.384"/>
</svg>
