<svg xmlns="http://www.w3.org/2000/svg" width="555.05" height="413.579" viewBox="0 0 555.05 413.579">
  <g id="Visual_data-rafiki" data-name="Visual data-rafiki" transform="translate(0 -55)">
    <g id="freepik--background-complete--inject-2" transform="translate(0 55)">
      <rect id="Rectangle_5357" data-name="Rectangle 5357" width="555.05" height="0.278" transform="translate(0 363.447)" fill="#ebebeb"/>
      <rect id="Rectangle_5358" data-name="Rectangle 5358" width="36.767" height="0.278" transform="translate(462.667 381.308)" fill="#ebebeb"/>
      <rect id="Rectangle_5359" data-name="Rectangle 5359" width="9.647" height="0.278" transform="translate(358.041 384.328)" fill="#ebebeb"/>
      <rect id="Rectangle_5360" data-name="Rectangle 5360" width="21.303" height="0.278" transform="translate(440.255 371.007)" fill="#ebebeb"/>
      <rect id="Rectangle_5361" data-name="Rectangle 5361" width="47.945" height="0.278" transform="translate(58.236 372.871)" fill="#ebebeb"/>
      <rect id="Rectangle_5362" data-name="Rectangle 5362" width="7.027" height="0.278" transform="translate(116.072 372.871)" fill="#ebebeb"/>
      <rect id="Rectangle_5363" data-name="Rectangle 5363" width="103.994" height="0.278" transform="translate(145.945 377.556)" fill="#ebebeb"/>
      <path id="Path_10" data-name="Path 10" d="M258.887,368.936H44.538A6.339,6.339,0,0,1,38.21,362.6V61.283A6.339,6.339,0,0,1,44.538,55H258.887a6.339,6.339,0,0,1,6.339,6.339V362.6A6.339,6.339,0,0,1,258.887,368.936ZM44.538,55.222a6.061,6.061,0,0,0-6.05,6.061V362.6a6.061,6.061,0,0,0,6.05,6.061H258.887a6.072,6.072,0,0,0,6.061-6.061V61.283a6.072,6.072,0,0,0-6.061-6.061Z" transform="translate(4.207 -55)" fill="#ebebeb"/>
      <path id="Path_11" data-name="Path 11" d="M475.2,368.936H260.839A6.35,6.35,0,0,1,254.5,362.6V61.283A6.35,6.35,0,0,1,260.839,55H475.2a6.339,6.339,0,0,1,6.316,6.283V362.6A6.339,6.339,0,0,1,475.2,368.936ZM260.839,55.222a6.072,6.072,0,0,0-6.061,6.061V362.6a6.072,6.072,0,0,0,6.061,6.061H475.2a6.072,6.072,0,0,0,6.061-6.061V61.283a6.072,6.072,0,0,0-6.061-6.061Z" transform="translate(28.02 -55)" fill="#ebebeb"/>
      <rect id="Rectangle_5364" data-name="Rectangle 5364" width="161.042" height="102.44" transform="translate(158.089 232.2)" fill="#ebebeb"/>
      <rect id="Rectangle_5365" data-name="Rectangle 5365" width="161.042" height="6.938" transform="translate(158.089 232.2)" fill="#e0e0e0"/>
      <circle id="Ellipse_4" data-name="Ellipse 4" cx="2.087" cy="2.087" r="2.087" transform="translate(312.56 233.587)" fill="#fafafa"/>
      <circle id="Ellipse_5" data-name="Ellipse 5" cx="2.087" cy="2.087" r="2.087" transform="translate(305.611 233.587)" fill="#fafafa"/>
      <circle id="Ellipse_6" data-name="Ellipse 6" cx="2.087" cy="2.087" r="2.087" transform="translate(298.661 233.587)" fill="#fafafa"/>
      <rect id="Rectangle_5366" data-name="Rectangle 5366" width="161.042" height="102.44" transform="translate(248.041 260.829)" fill="#f5f5f5"/>
      <rect id="Rectangle_5367" data-name="Rectangle 5367" width="161.042" height="6.938" transform="translate(248.041 260.829)" fill="#e0e0e0"/>
      <path id="Path_12" data-name="Path 12" d="M366.764,293.287a2.087,2.087,0,1,1-2.087-2.087A2.087,2.087,0,0,1,366.764,293.287Z" transform="translate(39.921 -28.994)" fill="#fafafa"/>
      <path id="Path_13" data-name="Path 13" d="M360.5,293.287a2.087,2.087,0,1,1-2.087-2.087A2.087,2.087,0,0,1,360.5,293.287Z" transform="translate(39.232 -28.994)" fill="#fafafa"/>
      <path id="Path_14" data-name="Path 14" d="M354.244,293.287a2.087,2.087,0,1,1-2.031-2.087,2.087,2.087,0,0,1,2.031,2.087Z" transform="translate(38.543 -28.994)" fill="#fafafa"/>
      <path id="Path_15" data-name="Path 15" d="M271.1,89.364h-.4a16.443,16.443,0,0,0,.278-2.9,15.985,15.985,0,0,0-15.985-15.974h-.122a12.211,12.211,0,0,0-21.369.455,13.376,13.376,0,0,0-16.829,12.476,12.211,12.211,0,0,0,7.26,21.96,12.024,12.024,0,0,0,2.92-.366H268.7a8.137,8.137,0,0,0,2.4.366,8.015,8.015,0,1,0,0-16.03Z" transform="translate(23.321 -53.963)" fill="#ebebeb"/>
      <path id="Path_16" data-name="Path 16" d="M385.2,117.165h-.311a12.026,12.026,0,0,0,.211-2.22,12.211,12.211,0,0,0-12.211-12.211H372.8a9.336,9.336,0,0,0-16.363.344,10.224,10.224,0,0,0-12.888,9.558,9.314,9.314,0,0,0,5.55,16.807,9.436,9.436,0,0,0,2.575-.366h31.46a6.139,6.139,0,1,0,2.076-11.911Z" transform="translate(37.408 -50.259)" fill="#ebebeb"/>
      <path id="Path_17" data-name="Path 17" d="M157.2,125.165h-.311a12.023,12.023,0,0,0,.211-2.22,12.211,12.211,0,0,0-12.211-12.211H144.8a9.336,9.336,0,0,0-16.363.344,10.224,10.224,0,0,0-12.888,9.558,9.314,9.314,0,0,0,5.55,16.807,9.436,9.436,0,0,0,2.575-.366h31.46a6.139,6.139,0,1,0,2.076-11.911Z" transform="translate(12.305 -49.378)" fill="#ebebeb"/>
      <path id="Path_18" data-name="Path 18" d="M81.451,347.086l-1.4-1.976a2.686,2.686,0,0,0-2.22-1.11H68.041A2.365,2.365,0,0,0,66,345.11l-1.11,1.943a2.376,2.376,0,0,1-2.043,1.11H56.917a2.376,2.376,0,0,0-2.387,2.553l1.9,32.848a2.742,2.742,0,0,0,2.686,2.553H105.64a2.376,2.376,0,0,0,2.387-2.553l-1.909-32.781a2.72,2.72,0,0,0-2.675-2.553H83.626a2.72,2.72,0,0,1-2.176-1.143Z" transform="translate(6.003 -23.181)" fill="#e0e0e0"/>
      <path id="Path_19" data-name="Path 19" d="M107.611,350.63H64.983a3.563,3.563,0,0,0-3.5,3.186l-2.564,28.452a2.886,2.886,0,0,0,2.931,3.186h42.672a3.586,3.586,0,0,0,3.508-3.186l2.564-28.452a2.875,2.875,0,0,0-2.986-3.186Z" transform="translate(6.486 -22.451)" fill="#f0f0f0"/>
      <path id="Path_20" data-name="Path 20" d="M420.385,347.5,419,345.56a2.709,2.709,0,0,0-2.22-1.11h-9.835a2.342,2.342,0,0,0-2.043,1.11l-1.177,1.943a2.364,2.364,0,0,1-2.043,1.11h-5.872a2.376,2.376,0,0,0-2.387,2.553l1.909,32.848a2.72,2.72,0,0,0,2.675,2.553h46.569a2.376,2.376,0,0,0,2.387-2.553l-1.9-32.848a2.742,2.742,0,0,0-2.686-2.553H422.561A2.72,2.72,0,0,1,420.385,347.5Z" transform="translate(43.315 -23.132)" fill="#e0e0e0"/>
      <path id="Path_21" data-name="Path 21" d="M446.541,351.05H403.924a3.575,3.575,0,0,0-3.508,3.186l-2.564,28.452a2.886,2.886,0,0,0,2.931,3.186H443.4a3.586,3.586,0,0,0,3.508-3.186l2.564-28.452a2.875,2.875,0,0,0-2.931-3.186Z" transform="translate(43.802 -22.405)" fill="#f0f0f0"/>
      <path id="Path_22" data-name="Path 22" d="M299.674,323.593l-1.4-1.943a2.686,2.686,0,0,0-2.22-1.11h-9.836a2.365,2.365,0,0,0-2.043,1.11l-1.155,1.943a2.376,2.376,0,0,1-2.043,1.11h-5.872a2.375,2.375,0,0,0-2.387,2.553l1.9,32.848a2.742,2.742,0,0,0,2.686,2.553h46.513a2.364,2.364,0,0,0,2.387-2.553l-1.9-32.848a2.72,2.72,0,0,0-2.675-2.553H301.816a2.72,2.72,0,0,1-2.143-1.11Z" transform="translate(30.026 -25.764)" fill="#e0e0e0"/>
      <path id="Path_23" data-name="Path 23" d="M325.831,327.14H283.2a3.574,3.574,0,0,0-3.5,3.186l-2.564,28.452a2.875,2.875,0,0,0,2.931,3.186h42.617a3.586,3.586,0,0,0,3.508-3.186l2.52-28.463a2.864,2.864,0,0,0-2.886-3.175Z" transform="translate(30.511 -25.037)" fill="#f0f0f0"/>
    </g>
    <g id="freepik--Shadow--inject-2" transform="translate(62.288 443.446)">
      <ellipse id="freepik--path--inject-2" cx="215.237" cy="12.566" rx="215.237" ry="12.566" fill="#f5f5f5"/>
    </g>
    <g id="freepik--Script--inject-2" transform="translate(66.14 134.938)">
      <rect id="Rectangle_5368" data-name="Rectangle 5368" width="115.917" height="198.597" rx="2.37" fill="#6c4551"/>
      <rect id="Rectangle_5369" data-name="Rectangle 5369" width="115.917" height="198.597" rx="2.37" fill="#fff" opacity="0.7" style="mix-blend-mode: normal;isolation: isolate"/>
      <rect id="Rectangle_5370" data-name="Rectangle 5370" width="21.836" height="2.964" transform="translate(7.871 25.166)" fill="#6c4551"/>
      <rect id="Rectangle_5371" data-name="Rectangle 5371" width="21.836" height="2.964" transform="translate(7.871 31.827)" fill="#6c4551"/>
      <rect id="Rectangle_5372" data-name="Rectangle 5372" width="21.836" height="2.964" transform="translate(85.622 25.166)" fill="#6c4551"/>
      <rect id="Rectangle_5373" data-name="Rectangle 5373" width="21.836" height="2.964" transform="translate(44.915 11.456)" fill="#6c4551"/>
      <rect id="Rectangle_5374" data-name="Rectangle 5374" width="99.587" height="2.964" transform="translate(7.871 6.283)" fill="#6c4551"/>
      <rect id="Rectangle_5375" data-name="Rectangle 5375" width="88.475" height="2.964" transform="translate(18.972 41.063)" fill="#6c4551"/>
      <rect id="Rectangle_5376" data-name="Rectangle 5376" width="99.587" height="2.964" transform="translate(7.871 46.979)" fill="#6c4551"/>
      <rect id="Rectangle_5377" data-name="Rectangle 5377" width="99.587" height="2.964" transform="translate(7.871 52.907)" fill="#6c4551"/>
      <rect id="Rectangle_5378" data-name="Rectangle 5378" width="99.587" height="2.964" transform="translate(7.871 58.824)" fill="#6c4551"/>
      <rect id="Rectangle_5379" data-name="Rectangle 5379" width="88.475" height="2.964" transform="translate(7.871 64.741)" fill="#6c4551"/>
      <rect id="Rectangle_5380" data-name="Rectangle 5380" width="88.475" height="2.964" transform="translate(18.972 75.498)" fill="#6c4551"/>
      <rect id="Rectangle_5381" data-name="Rectangle 5381" width="99.587" height="2.964" transform="translate(7.871 81.415)" fill="#6c4551"/>
      <rect id="Rectangle_5382" data-name="Rectangle 5382" width="99.587" height="2.964" transform="translate(7.871 87.343)" fill="#6c4551"/>
      <rect id="Rectangle_5383" data-name="Rectangle 5383" width="99.587" height="2.964" transform="translate(7.871 93.259)" fill="#6c4551"/>
      <rect id="Rectangle_5384" data-name="Rectangle 5384" width="88.475" height="2.964" transform="translate(7.871 99.176)" fill="#6c4551"/>
      <rect id="Rectangle_5385" data-name="Rectangle 5385" width="88.475" height="2.964" transform="translate(18.972 109.933)" fill="#6c4551"/>
      <rect id="Rectangle_5386" data-name="Rectangle 5386" width="99.587" height="2.964" transform="translate(7.871 115.85)" fill="#6c4551"/>
      <rect id="Rectangle_5387" data-name="Rectangle 5387" width="99.587" height="2.964" transform="translate(7.871 121.778)" fill="#6c4551"/>
      <rect id="Rectangle_5388" data-name="Rectangle 5388" width="99.587" height="2.964" transform="translate(7.871 127.695)" fill="#6c4551"/>
      <rect id="Rectangle_5389" data-name="Rectangle 5389" width="88.475" height="2.964" transform="translate(7.871 133.612)" fill="#6c4551"/>
      <rect id="Rectangle_5390" data-name="Rectangle 5390" width="88.475" height="2.964" transform="translate(18.972 145.479)" fill="#6c4551"/>
      <rect id="Rectangle_5391" data-name="Rectangle 5391" width="99.587" height="2.964" transform="translate(7.871 151.395)" fill="#6c4551"/>
      <rect id="Rectangle_5392" data-name="Rectangle 5392" width="99.587" height="2.964" transform="translate(7.871 157.323)" fill="#6c4551"/>
      <rect id="Rectangle_5393" data-name="Rectangle 5393" width="99.587" height="2.964" transform="translate(7.871 163.24)" fill="#6c4551"/>
      <rect id="Rectangle_5394" data-name="Rectangle 5394" width="88.475" height="2.964" transform="translate(7.871 169.157)" fill="#6c4551"/>
      <rect id="Rectangle_5395" data-name="Rectangle 5395" width="21.836" height="2.964" transform="translate(85.622 186.23)" fill="#6c4551"/>
      <g id="Group_36124" data-name="Group 36124" transform="translate(7.871 6.283)" opacity="0.2" style="mix-blend-mode: normal;isolation: isolate">
        <rect id="Rectangle_5396" data-name="Rectangle 5396" width="21.836" height="2.964" transform="translate(0 18.883)" fill="#fff"/>
        <rect id="Rectangle_5397" data-name="Rectangle 5397" width="21.836" height="2.964" transform="translate(0 25.543)" fill="#fff"/>
        <rect id="Rectangle_5398" data-name="Rectangle 5398" width="21.836" height="2.964" transform="translate(77.751 18.883)" fill="#fff"/>
        <rect id="Rectangle_5399" data-name="Rectangle 5399" width="21.836" height="2.964" transform="translate(37.044 5.173)" fill="#fff"/>
        <rect id="Rectangle_5400" data-name="Rectangle 5400" width="99.587" height="2.964" fill="#fff"/>
        <rect id="Rectangle_5401" data-name="Rectangle 5401" width="88.475" height="2.964" transform="translate(11.101 34.779)" fill="#fff"/>
        <rect id="Rectangle_5402" data-name="Rectangle 5402" width="99.587" height="2.964" transform="translate(0 40.696)" fill="#fff"/>
        <rect id="Rectangle_5403" data-name="Rectangle 5403" width="99.587" height="2.964" transform="translate(0 46.624)" fill="#fff"/>
        <rect id="Rectangle_5404" data-name="Rectangle 5404" width="99.587" height="2.964" transform="translate(0 52.541)" fill="#fff"/>
        <rect id="Rectangle_5405" data-name="Rectangle 5405" width="88.475" height="2.964" transform="translate(0 58.458)" fill="#fff"/>
        <rect id="Rectangle_5406" data-name="Rectangle 5406" width="88.475" height="2.964" transform="translate(11.101 69.215)" fill="#fff"/>
        <rect id="Rectangle_5407" data-name="Rectangle 5407" width="99.587" height="2.964" transform="translate(0 75.132)" fill="#fff"/>
        <rect id="Rectangle_5408" data-name="Rectangle 5408" width="99.587" height="2.964" transform="translate(0 81.06)" fill="#fff"/>
        <rect id="Rectangle_5409" data-name="Rectangle 5409" width="99.587" height="2.964" transform="translate(0 86.976)" fill="#fff"/>
        <rect id="Rectangle_5410" data-name="Rectangle 5410" width="88.475" height="2.964" transform="translate(0 92.893)" fill="#fff"/>
        <rect id="Rectangle_5411" data-name="Rectangle 5411" width="88.475" height="2.964" transform="translate(11.101 103.65)" fill="#fff"/>
        <rect id="Rectangle_5412" data-name="Rectangle 5412" width="99.587" height="2.964" transform="translate(0 109.567)" fill="#fff"/>
        <rect id="Rectangle_5413" data-name="Rectangle 5413" width="99.587" height="2.964" transform="translate(0 115.495)" fill="#fff"/>
        <rect id="Rectangle_5414" data-name="Rectangle 5414" width="99.587" height="2.964" transform="translate(0 121.412)" fill="#fff"/>
        <rect id="Rectangle_5415" data-name="Rectangle 5415" width="88.475" height="2.964" transform="translate(0 127.328)" fill="#fff"/>
        <rect id="Rectangle_5416" data-name="Rectangle 5416" width="88.475" height="2.964" transform="translate(11.101 139.195)" fill="#fff"/>
        <rect id="Rectangle_5417" data-name="Rectangle 5417" width="99.587" height="2.964" transform="translate(0 145.112)" fill="#fff"/>
        <rect id="Rectangle_5418" data-name="Rectangle 5418" width="99.587" height="2.964" transform="translate(0 151.04)" fill="#fff"/>
        <rect id="Rectangle_5419" data-name="Rectangle 5419" width="99.587" height="2.964" transform="translate(0 156.957)" fill="#fff"/>
        <rect id="Rectangle_5420" data-name="Rectangle 5420" width="88.475" height="2.964" transform="translate(0 162.874)" fill="#fff"/>
        <rect id="Rectangle_5421" data-name="Rectangle 5421" width="21.836" height="2.964" transform="translate(77.751 179.947)" fill="#fff"/>
      </g>
    </g>
    <g id="freepik--data-2--inject-2" transform="translate(120.623 129.91)">
      <rect id="Rectangle_5422" data-name="Rectangle 5422" width="66.983" height="55.649" rx="2.37" transform="translate(0 158.544)" opacity="0.1" style="mix-blend-mode: normal;isolation: isolate"/>
      <rect id="Rectangle_5423" data-name="Rectangle 5423" width="66.983" height="55.649" rx="2.37" transform="translate(8.259 169.079)" fill="#6c4551"/>
      <rect id="Rectangle_5424" data-name="Rectangle 5424" width="66.983" height="55.649" rx="2.37" transform="translate(8.259 169.079)" fill="#fff" opacity="0.3" style="mix-blend-mode: normal;isolation: isolate"/>
      <rect id="Rectangle_5425" data-name="Rectangle 5425" width="14" height="7" transform="translate(14.427 201.09)" fill="#6c4551"/>
      <rect id="Rectangle_5426" data-name="Rectangle 5426" width="38" height="7" transform="translate(29.427 201.09)" fill="#6c4551"/>
      <rect id="Rectangle_5427" data-name="Rectangle 5427" width="14" height="7" transform="translate(14.427 193.09)" fill="#6c4551"/>
      <rect id="Rectangle_5428" data-name="Rectangle 5428" width="14" height="6" transform="translate(14.427 185.09)" fill="#6c4551"/>
      <rect id="Rectangle_5429" data-name="Rectangle 5429" width="38" height="7" transform="translate(29.427 193.09)" fill="#6c4551"/>
      <rect id="Rectangle_5430" data-name="Rectangle 5430" width="38" height="8" transform="translate(29.427 209.09)" fill="#6c4551"/>
      <rect id="Rectangle_5431" data-name="Rectangle 5431" width="38" height="6" transform="translate(29.427 185.09)" fill="#6c4551"/>
      <rect id="Rectangle_5432" data-name="Rectangle 5432" width="14" height="8" transform="translate(14.427 209.09)" fill="#6c4551"/>
      <rect id="Rectangle_5433" data-name="Rectangle 5433" width="14" height="8" transform="translate(14.427 176.09)" fill="#6c4551"/>
      <rect id="Rectangle_5434" data-name="Rectangle 5434" width="38" height="8" transform="translate(29.427 176.09)" fill="#6c4551"/>
      <rect id="Rectangle_5435" data-name="Rectangle 5435" width="66.983" height="55.649" rx="2.37" transform="translate(19.171 62.321)" opacity="0.1" style="mix-blend-mode: normal;isolation: isolate"/>
      <rect id="Rectangle_5436" data-name="Rectangle 5436" width="66.983" height="55.649" rx="2.37" transform="translate(31.571 59.69)" fill="#6c4551"/>
      <rect id="Rectangle_5437" data-name="Rectangle 5437" width="66.983" height="55.649" rx="2.37" transform="translate(31.571 59.69)" fill="#fff" opacity="0.3" style="mix-blend-mode: normal;isolation: isolate"/>
      <rect id="Rectangle_5438" data-name="Rectangle 5438" width="17" height="8" transform="translate(74.427 67.09)" fill="#6c4551"/>
      <rect id="Rectangle_5439" data-name="Rectangle 5439" width="16" height="8" transform="translate(57.427 67.09)" fill="#6c4551"/>
      <rect id="Rectangle_5440" data-name="Rectangle 5440" width="16" height="33" transform="translate(57.427 75.09)" fill="#6c4551"/>
      <rect id="Rectangle_5441" data-name="Rectangle 5441" width="17" height="33" transform="translate(74.427 75.09)" fill="#6c4551"/>
      <rect id="Rectangle_5442" data-name="Rectangle 5442" width="16" height="8" transform="translate(39.427 67.09)" fill="#6c4551"/>
      <rect id="Rectangle_5443" data-name="Rectangle 5443" width="16" height="33" transform="translate(39.427 75.09)" fill="#6c4551"/>
      <rect id="Rectangle_5444" data-name="Rectangle 5444" width="66.983" height="55.649" rx="2.37" transform="translate(40.152 120.723)" opacity="0.1" style="mix-blend-mode: normal;isolation: isolate"/>
      <rect id="Rectangle_5445" data-name="Rectangle 5445" width="66.983" height="55.649" rx="2.37" transform="translate(62.654 117.16)" fill="#6c4551"/>
      <rect id="Rectangle_5446" data-name="Rectangle 5446" width="66.983" height="55.649" rx="2.37" transform="translate(62.654 117.16)" fill="#fff" opacity="0.3" style="mix-blend-mode: normal;isolation: isolate"/>
      <rect id="Rectangle_5447" data-name="Rectangle 5447" width="25" height="19" transform="translate(97.427 125.09)" fill="#6c4551"/>
      <rect id="Rectangle_5448" data-name="Rectangle 5448" width="25" height="19" transform="translate(70.427 125.09)" fill="#6c4551"/>
      <rect id="Rectangle_5449" data-name="Rectangle 5449" width="25" height="21" transform="translate(70.427 145.09)" fill="#6c4551"/>
      <rect id="Rectangle_5450" data-name="Rectangle 5450" width="25" height="21" transform="translate(97.427 145.09)" fill="#6c4551"/>
      <path id="Path_24" data-name="Path 24" d="M227.754,230.653v37.31H204.741a4.607,4.607,0,0,1-4.74-4.951V228h25.61C227.066,228,227.754,229.2,227.754,230.653Z" transform="translate(-98.605 -110.862)" opacity="0.2" style="mix-blend-mode: normal;isolation: isolate"/>
      <rect id="Rectangle_5451" data-name="Rectangle 5451" width="66.983" height="55.649" rx="2.37" transform="translate(41.551 10.002)" opacity="0.1" style="mix-blend-mode: normal;isolation: isolate"/>
      <rect id="Rectangle_5452" data-name="Rectangle 5452" width="66.983" height="55.649" rx="2.37" transform="translate(52.663)" fill="#6c4551"/>
      <rect id="Rectangle_5453" data-name="Rectangle 5453" width="66.983" height="55.649" rx="2.37" transform="translate(52.663)" fill="#fff" opacity="0.3" style="mix-blend-mode: normal;isolation: isolate"/>
      <rect id="Rectangle_5454" data-name="Rectangle 5454" width="21" height="6" transform="translate(79.427 7.09)" fill="#6c4551"/>
      <rect id="Rectangle_5455" data-name="Rectangle 5455" width="10" height="34" transform="translate(79.427 14.09)" fill="#6c4551"/>
      <rect id="Rectangle_5456" data-name="Rectangle 5456" width="11" height="6" transform="translate(101.427 7.09)" fill="#6c4551"/>
      <rect id="Rectangle_5457" data-name="Rectangle 5457" width="11" height="34" transform="translate(101.427 14.09)" fill="#6c4551"/>
      <rect id="Rectangle_5458" data-name="Rectangle 5458" width="10" height="34" transform="translate(90.427 14.09)" fill="#6c4551"/>
      <rect id="Rectangle_5459" data-name="Rectangle 5459" width="18" height="34" transform="translate(60.427 14.09)" fill="#6c4551"/>
      <rect id="Rectangle_5460" data-name="Rectangle 5460" width="18" height="6" transform="translate(60.427 7.09)" fill="#6c4551"/>
    </g>
    <g id="freepik--data-1--inject-2" transform="translate(236.351 90.568)">
      <rect id="Rectangle_5461" data-name="Rectangle 5461" width="86.033" height="86.033" rx="4.71" transform="translate(104.782 169.457)" fill="#6c4551"/>
      <rect id="Rectangle_5462" data-name="Rectangle 5462" width="63.92" height="63.553" transform="translate(116.017 180.702)" fill="#fff" opacity="0.25"/>
      <path id="Path_25" data-name="Path 25" d="M317.42,309.936l16.274-13.377,5.317,4.285,16.851-14.231,8.281,8.148,17.2-14.431v29.606Z" transform="translate(-201.403 -65.759)" fill="#fff" opacity="0.25"/>
      <path id="Path_26" data-name="Path 26" d="M317.42,311.605,331.2,285.762l16.1,2.509,12.034-15.719,12.389,2.231,9.625-9.613v46.435Z" transform="translate(-201.403 -67.428)" fill="#fff" opacity="0.25"/>
      <path id="Path_27" data-name="Path 27" d="M317.42,308.321l31.782-3.93,10.3-5.151,11.1,1.11L381.34,295v13.321Z" transform="translate(-201.403 -64.144)" fill="#fff" opacity="0.25"/>
      <path id="Path_28" data-name="Path 28" d="M384.707,240v8.881a5.8,5.8,0,0,1-5.55,5.551H316.991V280.5a5.3,5.3,0,0,1-5.551,5.018H307v-40.63c0-2.886,2.664-4.884,5.55-4.884Z" transform="translate(-202.551 -70.199)" opacity="0.2" style="mix-blend-mode: normal;isolation: isolate"/>
      <rect id="Rectangle_5463" data-name="Rectangle 5463" width="86.033" height="86.033" rx="4.71" transform="translate(0 96.401)" fill="#6c4551"/>
      <rect id="Rectangle_5464" data-name="Rectangle 5464" width="24.145" height="14.465" rx="0.87" transform="translate(30.772 105.382)" fill="#fff" opacity="0.8"/>
      <rect id="Rectangle_5465" data-name="Rectangle 5465" width="19.527" height="11.045" rx="0.87" transform="translate(18.439 136.498)" fill="#fff" opacity="0.6"/>
      <rect id="Rectangle_5466" data-name="Rectangle 5466" width="19.527" height="11.045" rx="0.87" transform="translate(48.067 136.498)" fill="#fff" opacity="0.6"/>
      <rect id="Rectangle_5467" data-name="Rectangle 5467" width="10.246" height="9.436" rx="0.87" transform="translate(39.131 159.865)" fill="#fff" opacity="0.4"/>
      <rect id="Rectangle_5468" data-name="Rectangle 5468" width="10.246" height="9.436" rx="0.87" transform="translate(52.141 159.865)" fill="#fff" opacity="0.4"/>
      <rect id="Rectangle_5469" data-name="Rectangle 5469" width="10.246" height="9.436" rx="0.87" transform="translate(65.163 159.865)" fill="#fff" opacity="0.4"/>
      <rect id="Rectangle_5470" data-name="Rectangle 5470" width="10.246" height="9.436" rx="0.87" transform="translate(9.014 159.865)" fill="#fff" opacity="0.4"/>
      <rect id="Rectangle_5471" data-name="Rectangle 5471" width="10.246" height="9.436" rx="0.87" transform="translate(23.134 159.865)" fill="#fff" opacity="0.4"/>
      <g id="Group_36125" data-name="Group 36125" transform="translate(13.421 119.846)" opacity="0.3">
        <path id="Path_29" data-name="Path 29" d="M266.863,211.652h1.11v-7.771H253.541V195h-1.11v8.881H238v7.771h1.11v-6.661h27.753Z" transform="translate(-223.569 -195)" fill="#fff"/>
        <path id="Path_30" data-name="Path 30" d="M239.431,226.661H225v5.55h1.11v-4.44h13.321v4.44h1.11V220h-1.11Z" transform="translate(-225 -192.247)" fill="#fff"/>
        <path id="Path_31" data-name="Path 31" d="M266.431,227.771V220h-1.11v7.771H252v4.44h1.11v-3.33h12.211v3.33h1.11v-3.33h12.211v3.33h1.11v-4.44Z" transform="translate(-222.027 -192.247)" fill="#fff"/>
      </g>
      <path id="Path_32" data-name="Path 32" d="M296.606,179.1v24.877H235.628a5.828,5.828,0,0,1-5.628-5.55V174h61.844a4.74,4.74,0,0,1,4.762,5.1Z" transform="translate(-211.028 -77.466)" opacity="0.2" style="mix-blend-mode: normal;isolation: isolate"/>
      <rect id="Rectangle_5472" data-name="Rectangle 5472" width="86.033" height="86.033" rx="4.71" transform="translate(117.97 59.002)" fill="#6c4551"/>
      <rect id="Rectangle_5473" data-name="Rectangle 5473" width="63.92" height="63.553" transform="translate(129.027 70.236)" fill="#fff" opacity="0.25"/>
      <rect id="Rectangle_5474" data-name="Rectangle 5474" width="6.439" height="16.507" transform="translate(135.554 109.3)" fill="#fff" opacity="0.35"/>
      <rect id="Rectangle_5475" data-name="Rectangle 5475" width="6.439" height="24.489" transform="translate(135.554 109.3)" fill="#fff" opacity="0.35"/>
      <rect id="Rectangle_5476" data-name="Rectangle 5476" width="6.439" height="24.3" transform="translate(146.655 97.733)" fill="#fff" opacity="0.35"/>
      <rect id="Rectangle_5477" data-name="Rectangle 5477" width="6.439" height="36.056" transform="translate(146.655 97.733)" fill="#fff" opacity="0.35"/>
      <rect id="Rectangle_5478" data-name="Rectangle 5478" width="6.439" height="19.504" transform="translate(157.767 104.849)" fill="#fff" opacity="0.35"/>
      <rect id="Rectangle_5479" data-name="Rectangle 5479" width="6.439" height="28.94" transform="translate(157.767 104.849)" fill="#fff" opacity="0.35"/>
      <rect id="Rectangle_5480" data-name="Rectangle 5480" width="6.439" height="26.243" transform="translate(168.88 94.858)" fill="#fff" opacity="0.35"/>
      <rect id="Rectangle_5481" data-name="Rectangle 5481" width="6.439" height="38.931" transform="translate(168.88 94.858)" fill="#fff" opacity="0.35"/>
      <rect id="Rectangle_5482" data-name="Rectangle 5482" width="6.439" height="36.522" transform="translate(179.981 79.594)" fill="#fff" opacity="0.35"/>
      <rect id="Rectangle_5483" data-name="Rectangle 5483" width="6.439" height="54.195" transform="translate(179.981 79.594)" fill="#fff" opacity="0.35"/>
      <path id="Path_33" data-name="Path 33" d="M342.312,140v47.068a5.24,5.24,0,0,1-5.362,5.106H319V145.428A5.551,5.551,0,0,1,324.417,140Z" transform="translate(-201.23 -81.209)" opacity="0.2" style="mix-blend-mode: normal;isolation: isolate"/>
      <rect id="Rectangle_5484" data-name="Rectangle 5484" width="86.033" height="86.033" rx="4.71" transform="translate(47.024)" fill="#6c4551"/>
      <circle id="Ellipse_7" data-name="Ellipse 7" cx="28.208" cy="28.208" r="28.208" transform="translate(57.695 66.344) rotate(-80.78)" fill="#fff" opacity="0.25"/>
      <path id="Path_34" data-name="Path 34" d="M296.794,128.589l27.753,5.262a28.208,28.208,0,1,1-27.753-33.481Z" transform="translate(-206.776 -85.572)" fill="#fff" opacity="0.25"/>
      <path id="Path_35" data-name="Path 35" d="M296.795,128.589V156.8a28.216,28.216,0,1,1,.078-56.432Z" transform="translate(-206.777 -85.573)" fill="#fff" opacity="0.25"/>
      <path id="Path_36" data-name="Path 36" d="M295.474,128.59,280.61,104.612a27.752,27.752,0,0,1,7.094-3.142,28.107,28.107,0,0,1,7.682-1.11Z" transform="translate(-205.456 -85.573)" fill="#fff" opacity="0.25"/>
    </g>
  </g>
</svg>
